<?xml version="1.0" encoding="UTF-8"?> <svg xmlns="http://www.w3.org/2000/svg" width="755" height="754" viewBox="0 0 755 754" fill="none"> <path d="M377.938 754C303.374 754 230.485 731.889 168.488 690.464C106.49 649.039 58.1693 590.159 29.6351 521.272C1.10085 452.384 -6.36501 376.582 8.18162 303.451C22.7282 230.32 58.634 163.145 111.358 110.421C164.083 57.6965 231.258 21.7907 304.389 7.24412C377.519 -7.30251 453.321 0.163352 522.209 28.6976C591.097 57.2318 649.976 105.553 691.402 167.55C732.827 229.547 754.938 302.437 754.938 377C754.938 476.987 715.218 572.878 644.517 643.579C573.816 714.28 477.924 754 377.938 754ZM377.938 50.2668C313.316 50.2668 250.145 69.4294 196.414 105.331C142.683 141.233 100.805 192.262 76.0754 251.965C51.3457 311.667 44.8753 377.363 57.4824 440.743C70.0895 504.123 101.208 562.341 146.902 608.035C192.597 653.73 250.815 684.848 314.195 697.455C377.575 710.062 443.27 703.592 502.973 678.862C562.676 654.133 613.704 612.254 649.606 558.523C685.508 504.792 704.671 441.622 704.671 377C704.671 290.345 670.247 207.239 608.973 145.965C547.699 84.6904 464.593 50.2668 377.938 50.2668V50.2668Z" fill="#272727"></path> <path d="M484.503 519.254L360.093 394.844C357.763 392.496 355.921 389.711 354.67 386.649C353.419 383.586 352.785 380.307 352.804 377V175.933H403.071V366.695L520.192 483.565L484.503 519.254Z" fill="#272727"></path> </svg> 