<?xml version="1.0" encoding="UTF-8"?> <svg xmlns="http://www.w3.org/2000/svg" width="575" height="779" viewBox="0 0 575 779" fill="none"> <path d="M544.789 324.405H496.336V208.993C496.336 93.7545 402.702 0 287.502 0C172.302 0 78.6689 93.816 78.6689 209.13V324.405H30.7536C14.1511 324.405 0.413086 337.591 0.413086 354.193V702.896C0.413086 744.335 34.4052 778.015 75.8444 778.015H499.698C541.137 778.015 574.592 744.335 574.592 702.896V354.193C574.592 337.591 561.391 324.405 544.789 324.405ZM138.726 209.13C138.726 126.966 205.454 60.1214 287.502 60.1214C369.551 60.1214 436.28 126.905 436.28 208.993V324.405H138.726V209.13ZM514.535 702.896C514.535 711.185 507.986 717.958 499.698 717.958H75.8444C67.5566 717.958 60.4699 711.184 60.4699 702.896V384.462H514.535V702.896Z" fill="white"></path> <path d="M287.503 641.272C304.106 641.272 317.531 627.814 317.531 611.212V502.994C317.531 486.392 304.105 472.934 287.503 472.934C270.901 472.934 257.475 486.392 257.475 502.994V611.212C257.475 627.814 270.9 641.272 287.503 641.272Z" fill="white"></path> </svg> 