<?xml version="1.0" encoding="UTF-8"?> <svg xmlns="http://www.w3.org/2000/svg" class="icon line" width="48" height="48" id="present-grow" viewBox="0 0 24 24"> <path d="M4,4H20a0,0,0,0,1,0,0V16a1,1,0,0,1-1,1H5a1,1,0,0,1-1-1V4A0,0,0,0,1,4,4Z" style="fill: none; stroke: rgb(255, 255, 255); stroke-linecap: round; stroke-linejoin: round; stroke-width: 1.5;"></path> <line x1="3" y1="4" x2="21" y2="4" style="fill: none; stroke: rgb(255, 255, 255); stroke-linecap: round; stroke-linejoin: round; stroke-width: 1.5;"></line> <line x1="10.4" y1="17" x2="8" y2="20" style="fill: none; stroke: rgb(255, 255, 255); stroke-linecap: round; stroke-linejoin: round; stroke-width: 1.5;"></line> <line x1="13.6" y1="17" x2="16" y2="20" style="fill: none; stroke: rgb(255, 255, 255); stroke-linecap: round; stroke-linejoin: round; stroke-width: 1.5;"></line> <path d="M8,13c4,0,5.73-2.78,7-5" style="fill: none; stroke: rgb(255, 255, 255); stroke-linecap: round; stroke-linejoin: round; stroke-width: 1.5;"></path> <polyline points="12 8 15 8 16 11" style="fill: none; stroke: rgb(255, 255, 255); stroke-linecap: round; stroke-linejoin: round; stroke-width: 1.5;"></polyline> </svg> 