<?xml version="1.0" encoding="UTF-8"?> <svg xmlns="http://www.w3.org/2000/svg" width="766" height="765" viewBox="0 0 766 765" fill="none"> <path d="M730.674 95.625H670.112V35.0625C670.112 15.9375 654.174 0 635.049 0H35.7993C16.6743 0 0.736816 15.9375 0.736816 35.0625V634.312C0.736816 653.437 16.6743 669.375 35.7993 669.375H96.3618V729.937C96.3618 749.062 112.299 765 131.424 765H730.674C749.799 765 765.737 749.062 765.737 729.937V130.687C765.737 111.562 749.799 95.625 730.674 95.625ZM96.3618 130.687V605.625H64.4868V63.75H606.362V95.625H131.424C112.299 95.625 96.3618 111.562 96.3618 130.687ZM701.987 701.25H160.112V159.375H701.987V701.25Z" fill="white"></path> <path d="M606.362 286.875H255.737V318.75H606.362V286.875Z" fill="white"></path> <path d="M606.362 350.625H255.737V382.5H606.362V350.625Z" fill="white"></path> <path d="M606.362 414.375H255.737V446.25H606.362V414.375Z" fill="white"></path> <path d="M606.362 478.125H255.737V510H606.362V478.125Z" fill="white"></path> <path d="M606.362 541.875H255.737V573.75H606.362V541.875Z" fill="white"></path> </svg> 