<?xml version="1.0" encoding="UTF-8"?> <svg xmlns="http://www.w3.org/2000/svg" width="828" height="754" viewBox="0 0 828 754" fill="none"> <path d="M662.302 337.8V41.3122H178.958C103.745 41.3122 42.1208 102.937 42.1208 178.159V712.688H662.302V623.319C591.482 613.158 538.734 552.241 538.734 480.554C538.734 408.868 591.492 347.951 662.302 337.8V337.8ZM126.867 625.312C99.7009 625.312 99.7009 583.999 126.867 583.999H419.24C446.407 583.999 446.407 625.312 419.24 625.312H126.867ZM126.867 536.969C99.7009 536.969 99.7009 495.657 126.867 495.657H419.24C446.407 495.657 446.407 536.969 419.24 536.969H126.867ZM126.867 448.626C99.7009 448.626 99.7009 407.314 126.867 407.314H419.24C446.407 407.314 446.407 448.626 419.24 448.626H126.867V448.626ZM383.238 228.816C356.072 228.816 356.072 187.514 383.238 187.514H557.821C584.987 187.514 584.987 228.816 557.821 228.816H383.238ZM383.238 302.435C356.072 302.435 356.072 261.133 383.238 261.133H557.821C584.987 261.133 584.987 302.435 557.821 302.435H383.238ZM146.602 143.333H308.573C319.97 143.333 329.224 152.587 329.224 163.994V325.955C329.224 337.361 319.97 346.606 308.573 346.606H146.602C135.195 346.606 125.951 337.361 125.951 325.955V163.994C125.951 152.587 135.195 143.333 146.602 143.333ZM287.912 184.645H167.263V305.304H287.912V184.645ZM785.88 480.554C785.88 423.712 739.806 377.638 682.963 377.638C626.12 377.638 580.046 423.712 580.046 480.554C580.046 537.397 626.11 583.471 682.963 583.471C739.796 583.471 785.88 537.387 785.88 480.554ZM767.132 597.687L824.174 707.358C836.696 731.446 800.066 750.493 787.544 726.405L730.521 616.754C721.894 619.763 712.899 621.984 703.614 623.319V733.339C703.614 744.745 694.369 754 682.963 754H21.4697C10.0632 754 0.808594 744.745 0.808594 733.339V178.159C0.808594 80.1339 80.9325 0 178.958 0H682.963C694.369 0 703.614 9.25465 703.614 20.6611V337.8C774.434 347.961 827.192 408.868 827.192 480.554C827.192 527.176 804.837 570.551 767.132 597.687Z" fill="white"></path> </svg> 