<?xml version="1.0" encoding="UTF-8"?> <svg xmlns="http://www.w3.org/2000/svg" width="213" height="213" viewBox="0 0 213 213" fill="none"> <path d="M93.7354 141.016L91.3281 139.225L91.3223 139.233L93.7354 141.016ZM48.1396 140.847L45.7155 142.615L45.7204 142.621L45.7254 142.628L48.1396 140.847ZM48.1396 78.2935L45.7254 76.5126L45.7197 76.5204L48.1396 78.2935ZM93.8477 78.3496L91.4065 80.0933L91.4113 80.1002L91.4163 80.107L93.8477 78.3496ZM63.02 129.224L60.2311 130.329L60.2372 130.344L60.2434 130.36L63.02 129.224ZM78.7988 129.167L76.0186 128.04L76.0142 128.051L76.0099 128.062L78.7988 129.167ZM78.7988 89.917L76.0066 91.014L76.0108 91.0247L76.0151 91.0354L78.7988 89.917ZM63.02 89.8047L65.8019 90.9277L65.8055 90.9189L63.02 89.8047ZM99.0459 110.3C99.0459 122.936 96.3558 132.465 91.3281 139.225L96.1426 142.806C102.196 134.667 105.046 123.719 105.046 110.3H99.0459ZM91.3223 139.233C86.4129 145.879 79.7478 149.19 70.9937 149.19V155.19C81.5559 155.19 90.052 151.051 96.1484 142.798L91.3223 139.233ZM70.9937 149.19C62.2568 149.19 55.5479 145.837 50.5539 139.066L45.7254 142.628C51.887 150.981 60.4141 155.19 70.9937 155.19V149.19ZM50.5638 139.08C45.5239 132.167 42.8291 122.423 42.8291 109.514H36.8291C36.8291 123.184 39.6747 134.329 45.7155 142.615L50.5638 139.08ZM42.8291 109.514C42.8291 96.6441 45.5234 86.9402 50.5596 80.0665L45.7197 76.5204C39.6751 84.7704 36.8291 95.8803 36.8291 109.514H42.8291ZM50.5539 80.0743C55.5479 73.304 62.2568 69.9507 70.9937 69.9507V63.9507C60.4141 63.9507 51.887 68.1593 45.7254 76.5126L50.5539 80.0743ZM70.9937 69.9507C79.8902 69.9507 86.5741 73.328 91.4065 80.0933L96.2889 76.6059C90.2651 68.1726 81.713 63.9507 70.9937 63.9507V69.9507ZM91.4163 80.107C96.3746 86.9672 99.0459 96.9085 99.0459 110.3H105.046C105.046 96.2149 102.252 84.8557 96.2791 76.5923L91.4163 80.107ZM57.5493 109.514C57.5493 118.573 58.3646 125.62 60.2311 130.329L65.8089 128.118C64.3811 124.516 63.5493 118.424 63.5493 109.514H57.5493ZM60.2434 130.36C61.2225 132.753 62.5811 134.788 64.4397 136.228C66.3375 137.698 68.5696 138.4 70.9937 138.4V132.4C69.7865 132.4 68.874 132.073 68.114 131.485C67.3147 130.865 66.5021 129.812 65.7967 128.088L60.2434 130.36ZM70.9937 138.4C73.4024 138.4 75.6142 137.68 77.4842 136.186C79.3097 134.729 80.6352 132.676 81.5877 130.273L76.0099 128.062C75.3154 129.814 74.5163 130.878 73.7402 131.498C73.0085 132.082 72.1412 132.4 70.9937 132.4V138.4ZM81.579 130.295C83.4913 125.578 84.3257 118.54 84.3257 109.514H78.3257C78.3257 118.382 77.4755 124.447 76.0186 128.04L81.579 130.295ZM84.3257 109.514C84.3257 100.556 83.4898 93.5455 81.5825 88.7985L76.0151 91.0354C77.477 94.6739 78.3257 100.728 78.3257 109.514H84.3257ZM81.5911 88.82C80.6408 86.4011 79.3183 84.3337 77.4945 82.8642C75.6246 81.3575 73.4092 80.6279 70.9937 80.6279V86.6279C72.1344 86.6279 72.9981 86.9465 73.7299 87.5362C74.5078 88.163 75.3097 89.2402 76.0066 91.014L81.5911 88.82ZM70.9937 80.6279C68.5586 80.6279 66.3151 81.3259 64.4116 82.8005C62.5461 84.2456 61.1951 86.2894 60.2346 88.6905L65.8055 90.9189C66.4921 89.2022 67.2936 88.1576 68.086 87.5438C68.8404 86.9594 69.7601 86.6279 70.9937 86.6279V80.6279ZM60.2381 88.6817C58.3623 93.3286 57.5493 100.391 57.5493 109.514H63.5493C63.5493 100.519 64.3835 94.4416 65.8019 90.9277L60.2381 88.6817ZM111.592 122.766V119.766H108.592V122.766H111.592ZM132.424 122.766H135.424V119.766H132.424V122.766ZM134.951 132.312L132.721 134.319L132.731 134.33L132.742 134.341L134.951 132.312ZM150.337 132.424L152.414 134.589L152.425 134.578L152.436 134.567L150.337 132.424ZM150.112 116.365L148.077 118.569L148.099 118.589L148.122 118.609L150.112 116.365ZM139.331 113.726V116.726H139.481L139.63 116.711L139.331 113.726ZM138.376 113.726H135.376V116.726H138.376V113.726ZM138.376 100.53V97.5298H135.376V100.53H138.376ZM148.708 84.751L146.662 86.9441L146.674 86.9554L146.686 86.9664L148.708 84.751ZM135.569 84.6948L133.473 82.5481L135.569 84.6948ZM133.098 91.2085V94.2085H136.019L136.097 91.2885L133.098 91.2085ZM113.22 91.2085L110.221 91.15L110.161 94.2085H113.22V91.2085ZM121.25 73.3521L123.142 75.6799L123.144 75.6784L121.25 73.3521ZM162.971 72.6782L161.102 75.0244L161.112 75.0324L161.122 75.0404L162.971 72.6782ZM166.902 98.7329L169.283 100.558L169.289 100.55L169.294 100.543L166.902 98.7329ZM157.244 105.022L156.356 102.156L156.705 107.973L157.244 105.022ZM169.204 111.76L166.861 113.634L166.866 113.64L166.871 113.646L169.204 111.76ZM164.937 144.722L162.961 142.464L162.954 142.47L164.937 144.722ZM119.958 144.497L117.92 146.698L117.928 146.705L117.935 146.712L119.958 144.497ZM111.592 125.766H132.424V119.766H111.592V125.766ZM129.424 122.766V124.114H135.424V122.766H129.424ZM129.424 124.114C129.424 128.135 130.365 131.701 132.721 134.319L137.181 130.305C136.168 129.18 135.424 127.28 135.424 124.114H129.424ZM132.742 134.341C135.162 136.977 138.57 138.063 142.419 138.063V132.063C139.68 132.063 138.11 131.316 137.161 130.283L132.742 134.341ZM142.419 138.063C146.357 138.063 149.847 137.052 152.414 134.589L148.26 130.259C147.159 131.316 145.37 132.063 142.419 132.063V138.063ZM152.436 134.567C155.01 132.046 156.088 128.588 156.088 124.675H150.088C150.088 127.5 149.332 129.209 148.238 130.281L152.436 134.567ZM156.088 124.675C156.088 120.412 154.965 116.658 152.103 114.12L148.122 118.609C149.228 119.59 150.088 121.377 150.088 124.675H156.088ZM152.147 114.16C149.4 111.625 145.43 110.669 140.903 110.669V116.669C144.762 116.669 146.931 117.511 148.077 118.569L152.147 114.16ZM140.903 110.669C140.194 110.669 139.554 110.688 139.033 110.74L139.63 116.711C139.856 116.688 140.265 116.669 140.903 116.669V110.669ZM139.331 110.726C139.33 110.726 139.33 110.726 139.329 110.726C139.328 110.726 139.328 110.726 139.327 110.726C139.326 110.726 139.326 110.726 139.325 110.726C139.324 110.726 139.324 110.726 139.323 110.726C139.323 110.726 139.322 110.726 139.321 110.726C139.321 110.726 139.32 110.726 139.319 110.726C139.319 110.726 139.318 110.726 139.317 110.726C139.317 110.726 139.316 110.726 139.315 110.726C139.315 110.726 139.314 110.726 139.313 110.726C139.313 110.726 139.312 110.726 139.311 110.726C139.311 110.726 139.31 110.726 139.309 110.726C139.309 110.726 139.308 110.726 139.307 110.726C139.307 110.726 139.306 110.726 139.305 110.726C139.305 110.726 139.304 110.726 139.303 110.726C139.303 110.726 139.302 110.726 139.301 110.726C139.301 110.726 139.3 110.726 139.3 110.726C139.299 110.726 139.298 110.726 139.298 110.726C139.297 110.726 139.296 110.726 139.296 110.726C139.295 110.726 139.294 110.726 139.294 110.726C139.293 110.726 139.292 110.726 139.292 110.726C139.291 110.726 139.29 110.726 139.29 110.726C139.289 110.726 139.288 110.726 139.288 110.726C139.287 110.726 139.286 110.726 139.286 110.726C139.285 110.726 139.284 110.726 139.284 110.726C139.283 110.726 139.282 110.726 139.282 110.726C139.281 110.726 139.281 110.726 139.28 110.726C139.279 110.726 139.279 110.726 139.278 110.726C139.277 110.726 139.277 110.726 139.276 110.726C139.275 110.726 139.275 110.726 139.274 110.726C139.273 110.726 139.273 110.726 139.272 110.726C139.271 110.726 139.271 110.726 139.27 110.726C139.269 110.726 139.269 110.726 139.268 110.726C139.267 110.726 139.267 110.726 139.266 110.726C139.265 110.726 139.265 110.726 139.264 110.726C139.264 110.726 139.263 110.726 139.262 110.726C139.262 110.726 139.261 110.726 139.26 110.726C139.26 110.726 139.259 110.726 139.258 110.726C139.258 110.726 139.257 110.726 139.256 110.726C139.256 110.726 139.255 110.726 139.254 110.726C139.254 110.726 139.253 110.726 139.252 110.726C139.252 110.726 139.251 110.726 139.25 110.726C139.25 110.726 139.249 110.726 139.249 110.726C139.248 110.726 139.247 110.726 139.247 110.726C139.246 110.726 139.245 110.726 139.245 110.726C139.244 110.726 139.243 110.726 139.243 110.726C139.242 110.726 139.241 110.726 139.241 110.726C139.24 110.726 139.239 110.726 139.239 110.726C139.238 110.726 139.237 110.726 139.237 110.726C139.236 110.726 139.235 110.726 139.235 110.726C139.234 110.726 139.234 110.726 139.233 110.726C139.232 110.726 139.232 110.726 139.231 110.726C139.23 110.726 139.23 110.726 139.229 110.726C139.228 110.726 139.228 110.726 139.227 110.726C139.226 110.726 139.226 110.726 139.225 110.726C139.224 110.726 139.224 110.726 139.223 110.726C139.222 110.726 139.222 110.726 139.221 110.726C139.221 110.726 139.22 110.726 139.219 110.726C139.219 110.726 139.218 110.726 139.217 110.726C139.217 110.726 139.216 110.726 139.215 110.726C139.215 110.726 139.214 110.726 139.213 110.726C139.213 110.726 139.212 110.726 139.211 110.726C139.211 110.726 139.21 110.726 139.209 110.726C139.209 110.726 139.208 110.726 139.208 110.726C139.207 110.726 139.206 110.726 139.206 110.726C139.205 110.726 139.204 110.726 139.204 110.726C139.203 110.726 139.202 110.726 139.202 110.726C139.201 110.726 139.2 110.726 139.2 110.726C139.199 110.726 139.198 110.726 139.198 110.726C139.197 110.726 139.197 110.726 139.196 110.726C139.195 110.726 139.195 110.726 139.194 110.726C139.193 110.726 139.193 110.726 139.192 110.726C139.191 110.726 139.191 110.726 139.19 110.726C139.189 110.726 139.189 110.726 139.188 110.726C139.187 110.726 139.187 110.726 139.186 110.726C139.185 110.726 139.185 110.726 139.184 110.726C139.184 110.726 139.183 110.726 139.182 110.726C139.182 110.726 139.181 110.726 139.18 110.726C139.18 110.726 139.179 110.726 139.178 110.726C139.178 110.726 139.177 110.726 139.176 110.726C139.176 110.726 139.175 110.726 139.174 110.726C139.174 110.726 139.173 110.726 139.173 110.726C139.172 110.726 139.171 110.726 139.171 110.726C139.17 110.726 139.169 110.726 139.169 110.726C139.168 110.726 139.167 110.726 139.167 110.726C139.166 110.726 139.165 110.726 139.165 110.726C139.164 110.726 139.164 110.726 139.163 110.726C139.162 110.726 139.162 110.726 139.161 110.726C139.16 110.726 139.16 110.726 139.159 110.726C139.158 110.726 139.158 110.726 139.157 110.726C139.156 110.726 139.156 110.726 139.155 110.726C139.154 110.726 139.154 110.726 139.153 110.726C139.153 110.726 139.152 110.726 139.151 110.726C139.151 110.726 139.15 110.726 139.149 110.726C139.149 110.726 139.148 110.726 139.147 110.726C139.147 110.726 139.146 110.726 139.145 110.726C139.145 110.726 139.144 110.726 139.144 110.726C139.143 110.726 139.142 110.726 139.142 110.726C139.141 110.726 139.14 110.726 139.14 110.726C139.139 110.726 139.138 110.726 139.138 110.726C139.137 110.726 139.136 110.726 139.136 110.726C139.135 110.726 139.134 110.726 139.134 110.726C139.133 110.726 139.133 110.726 139.132 110.726C139.131 110.726 139.131 110.726 139.13 110.726C139.129 110.726 139.129 110.726 139.128 110.726C139.127 110.726 139.127 110.726 139.126 110.726C139.125 110.726 139.125 110.726 139.124 110.726C139.124 110.726 139.123 110.726 139.122 110.726C139.122 110.726 139.121 110.726 139.12 110.726C139.12 110.726 139.119 110.726 139.118 110.726C139.118 110.726 139.117 110.726 139.116 110.726C139.116 110.726 139.115 110.726 139.115 110.726C139.114 110.726 139.113 110.726 139.113 110.726C139.112 110.726 139.111 110.726 139.111 110.726C139.11 110.726 139.109 110.726 139.109 110.726C139.108 110.726 139.108 110.726 139.107 110.726C139.106 110.726 139.106 110.726 139.105 110.726C139.104 110.726 139.104 110.726 139.103 110.726C139.102 110.726 139.102 110.726 139.101 110.726C139.1 110.726 139.1 110.726 139.099 110.726C139.099 110.726 139.098 110.726 139.097 110.726C139.097 110.726 139.096 110.726 139.095 110.726C139.095 110.726 139.094 110.726 139.093 110.726C139.093 110.726 139.092 110.726 139.091 110.726C139.091 110.726 139.09 110.726 139.09 110.726C139.089 110.726 139.088 110.726 139.088 110.726C139.087 110.726 139.086 110.726 139.086 110.726C139.085 110.726 139.084 110.726 139.084 110.726C139.083 110.726 139.083 110.726 139.082 110.726C139.081 110.726 139.081 110.726 139.08 110.726C139.079 110.726 139.079 110.726 139.078 110.726C139.077 110.726 139.077 110.726 139.076 110.726C139.075 110.726 139.075 110.726 139.074 110.726C139.074 110.726 139.073 110.726 139.072 110.726C139.072 110.726 139.071 110.726 139.07 110.726C139.07 110.726 139.069 110.726 139.068 110.726C139.068 110.726 139.067 110.726 139.067 110.726C139.066 110.726 139.065 110.726 139.065 110.726C139.064 110.726 139.063 110.726 139.063 110.726C139.062 110.726 139.061 110.726 139.061 110.726C139.06 110.726 139.06 110.726 139.059 110.726C139.058 110.726 139.058 110.726 139.057 110.726C139.056 110.726 139.056 110.726 139.055 110.726C139.054 110.726 139.054 110.726 139.053 110.726C139.052 110.726 139.052 110.726 139.051 110.726C139.051 110.726 139.05 110.726 139.049 110.726C139.049 110.726 139.048 110.726 139.047 110.726C139.047 110.726 139.046 110.726 139.045 110.726C139.045 110.726 139.044 110.726 139.044 110.726C139.043 110.726 139.042 110.726 139.042 110.726C139.041 110.726 139.04 110.726 139.04 110.726C139.039 110.726 139.038 110.726 139.038 110.726C139.037 110.726 139.037 110.726 139.036 110.726C139.035 110.726 139.035 110.726 139.034 110.726C139.033 110.726 139.033 110.726 139.032 110.726C139.031 110.726 139.031 110.726 139.03 110.726C139.03 110.726 139.029 110.726 139.028 110.726C139.028 110.726 139.027 110.726 139.026 110.726C139.026 110.726 139.025 110.726 139.024 110.726C139.024 110.726 139.023 110.726 139.023 110.726C139.022 110.726 139.021 110.726 139.021 110.726C139.02 110.726 139.019 110.726 139.019 110.726C139.018 110.726 139.018 110.726 139.017 110.726C139.016 110.726 139.016 110.726 139.015 110.726C139.014 110.726 139.014 110.726 139.013 110.726C139.012 110.726 139.012 110.726 139.011 110.726C139.011 110.726 139.01 110.726 139.009 110.726C139.009 110.726 139.008 110.726 139.007 110.726C139.007 110.726 139.006 110.726 139.005 110.726C139.005 110.726 139.004 110.726 139.004 110.726C139.003 110.726 139.002 110.726 139.002 110.726C139.001 110.726 139 110.726 139 110.726C138.999 110.726 138.998 110.726 138.998 110.726C138.997 110.726 138.997 110.726 138.996 110.726C138.995 110.726 138.995 110.726 138.994 110.726C138.993 110.726 138.993 110.726 138.992 110.726C138.992 110.726 138.991 110.726 138.99 110.726C138.99 110.726 138.989 110.726 138.988 110.726C138.988 110.726 138.987 110.726 138.986 110.726C138.986 110.726 138.985 110.726 138.985 110.726C138.984 110.726 138.983 110.726 138.983 110.726C138.982 110.726 138.981 110.726 138.981 110.726C138.98 110.726 138.979 110.726 138.979 110.726C138.978 110.726 138.978 110.726 138.977 110.726C138.976 110.726 138.976 110.726 138.975 110.726C138.974 110.726 138.974 110.726 138.973 110.726C138.973 110.726 138.972 110.726 138.971 110.726C138.971 110.726 138.97 110.726 138.969 110.726C138.969 110.726 138.968 110.726 138.967 110.726C138.967 110.726 138.966 110.726 138.966 110.726C138.965 110.726 138.964 110.726 138.964 110.726C138.963 110.726 138.962 110.726 138.962 110.726C138.961 110.726 138.961 110.726 138.96 110.726C138.959 110.726 138.959 110.726 138.958 110.726C138.957 110.726 138.957 110.726 138.956 110.726C138.956 110.726 138.955 110.726 138.954 110.726C138.954 110.726 138.953 110.726 138.952 110.726C138.952 110.726 138.951 110.726 138.95 110.726C138.95 110.726 138.949 110.726 138.949 110.726C138.948 110.726 138.947 110.726 138.947 110.726C138.946 110.726 138.945 110.726 138.945 110.726C138.944 110.726 138.944 110.726 138.943 110.726C138.942 110.726 138.942 110.726 138.941 110.726C138.94 110.726 138.94 110.726 138.939 110.726C138.939 110.726 138.938 110.726 138.937 110.726C138.937 110.726 138.936 110.726 138.935 110.726C138.935 110.726 138.934 110.726 138.933 110.726C138.933 110.726 138.932 110.726 138.932 110.726C138.931 110.726 138.93 110.726 138.93 110.726C138.929 110.726 138.928 110.726 138.928 110.726C138.927 110.726 138.927 110.726 138.926 110.726C138.925 110.726 138.925 110.726 138.924 110.726C138.923 110.726 138.923 110.726 138.922 110.726C138.922 110.726 138.921 110.726 138.92 110.726C138.92 110.726 138.919 110.726 138.918 110.726C138.918 110.726 138.917 110.726 138.917 110.726C138.916 110.726 138.915 110.726 138.915 110.726C138.914 110.726 138.913 110.726 138.913 110.726C138.912 110.726 138.912 110.726 138.911 110.726C138.91 110.726 138.91 110.726 138.909 110.726C138.908 110.726 138.908 110.726 138.907 110.726C138.906 110.726 138.906 110.726 138.905 110.726C138.905 110.726 138.904 110.726 138.903 110.726C138.903 110.726 138.902 110.726 138.901 110.726C138.901 110.726 138.9 110.726 138.9 110.726C138.899 110.726 138.898 110.726 138.898 110.726C138.897 110.726 138.896 110.726 138.896 110.726C138.895 110.726 138.895 110.726 138.894 110.726C138.893 110.726 138.893 110.726 138.892 110.726C138.891 110.726 138.891 110.726 138.89 110.726C138.89 110.726 138.889 110.726 138.888 110.726C138.888 110.726 138.887 110.726 138.886 110.726C138.886 110.726 138.885 110.726 138.885 110.726C138.884 110.726 138.883 110.726 138.883 110.726C138.882 110.726 138.881 110.726 138.881 110.726C138.88 110.726 138.88 110.726 138.879 110.726C138.878 110.726 138.878 110.726 138.877 110.726C138.876 110.726 138.876 110.726 138.875 110.726C138.875 110.726 138.874 110.726 138.873 110.726C138.873 110.726 138.872 110.726 138.871 110.726C138.871 110.726 138.87 110.726 138.87 110.726C138.869 110.726 138.868 110.726 138.868 110.726C138.867 110.726 138.866 110.726 138.866 110.726C138.865 110.726 138.865 110.726 138.864 110.726C138.863 110.726 138.863 110.726 138.862 110.726C138.862 110.726 138.861 110.726 138.86 110.726C138.86 110.726 138.859 110.726 138.858 110.726C138.858 110.726 138.857 110.726 138.857 110.726C138.856 110.726 138.855 110.726 138.855 110.726C138.854 110.726 138.853 110.726 138.853 110.726C138.852 110.726 138.852 110.726 138.851 110.726C138.85 110.726 138.85 110.726 138.849 110.726C138.848 110.726 138.848 110.726 138.847 110.726C138.847 110.726 138.846 110.726 138.845 110.726C138.845 110.726 138.844 110.726 138.843 110.726C138.843 110.726 138.842 110.726 138.842 110.726C138.841 110.726 138.84 110.726 138.84 110.726C138.839 110.726 138.838 110.726 138.838 110.726C138.837 110.726 138.837 110.726 138.836 110.726C138.835 110.726 138.835 110.726 138.834 110.726C138.834 110.726 138.833 110.726 138.832 110.726C138.832 110.726 138.831 110.726 138.83 110.726C138.83 110.726 138.829 110.726 138.829 110.726C138.828 110.726 138.827 110.726 138.827 110.726C138.826 110.726 138.825 110.726 138.825 110.726C138.824 110.726 138.824 110.726 138.823 110.726C138.822 110.726 138.822 110.726 138.821 110.726C138.82 110.726 138.82 110.726 138.819 110.726C138.819 110.726 138.818 110.726 138.817 110.726C138.817 110.726 138.816 110.726 138.816 110.726C138.815 110.726 138.814 110.726 138.814 110.726C138.813 110.726 138.812 110.726 138.812 110.726C138.811 110.726 138.811 110.726 138.81 110.726C138.809 110.726 138.809 110.726 138.808 110.726C138.807 110.726 138.807 110.726 138.806 110.726C138.806 110.726 138.805 110.726 138.804 110.726C138.804 110.726 138.803 110.726 138.803 110.726C138.802 110.726 138.801 110.726 138.801 110.726C138.8 110.726 138.799 110.726 138.799 110.726C138.798 110.726 138.798 110.726 138.797 110.726C138.796 110.726 138.796 110.726 138.795 110.726C138.794 110.726 138.794 110.726 138.793 110.726C138.793 110.726 138.792 110.726 138.791 110.726C138.791 110.726 138.79 110.726 138.79 110.726C138.789 110.726 138.788 110.726 138.788 110.726C138.787 110.726 138.786 110.726 138.786 110.726C138.785 110.726 138.785 110.726 138.784 110.726C138.783 110.726 138.783 110.726 138.782 110.726C138.782 110.726 138.781 110.726 138.78 110.726C138.78 110.726 138.779 110.726 138.778 110.726C138.778 110.726 138.777 110.726 138.777 110.726C138.776 110.726 138.775 110.726 138.775 110.726C138.774 110.726 138.773 110.726 138.773 110.726C138.772 110.726 138.772 110.726 138.771 110.726C138.77 110.726 138.77 110.726 138.769 110.726C138.769 110.726 138.768 110.726 138.767 110.726C138.767 110.726 138.766 110.726 138.765 110.726C138.765 110.726 138.764 110.726 138.764 110.726C138.763 110.726 138.762 110.726 138.762 110.726C138.761 110.726 138.761 110.726 138.76 110.726C138.759 110.726 138.759 110.726 138.758 110.726C138.757 110.726 138.757 110.726 138.756 110.726C138.756 110.726 138.755 110.726 138.754 110.726C138.754 110.726 138.753 110.726 138.753 110.726C138.752 110.726 138.751 110.726 138.751 110.726C138.75 110.726 138.749 110.726 138.749 110.726C138.748 110.726 138.748 110.726 138.747 110.726C138.746 110.726 138.746 110.726 138.745 110.726C138.745 110.726 138.744 110.726 138.743 110.726C138.743 110.726 138.742 110.726 138.742 110.726C138.741 110.726 138.74 110.726 138.74 110.726C138.739 110.726 138.738 110.726 138.738 110.726C138.737 110.726 138.737 110.726 138.736 110.726C138.735 110.726 138.735 110.726 138.734 110.726C138.734 110.726 138.733 110.726 138.732 110.726C138.732 110.726 138.731 110.726 138.73 110.726C138.73 110.726 138.729 110.726 138.729 110.726C138.728 110.726 138.727 110.726 138.727 110.726C138.726 110.726 138.726 110.726 138.725 110.726C138.724 110.726 138.724 110.726 138.723 110.726C138.723 110.726 138.722 110.726 138.721 110.726C138.721 110.726 138.72 110.726 138.719 110.726C138.719 110.726 138.718 110.726 138.718 110.726C138.717 110.726 138.716 110.726 138.716 110.726C138.715 110.726 138.715 110.726 138.714 110.726C138.713 110.726 138.713 110.726 138.712 110.726C138.711 110.726 138.711 110.726 138.71 110.726C138.71 110.726 138.709 110.726 138.708 110.726C138.708 110.726 138.707 110.726 138.707 110.726C138.706 110.726 138.705 110.726 138.705 110.726C138.704 110.726 138.704 110.726 138.703 110.726C138.702 110.726 138.702 110.726 138.701 110.726C138.7 110.726 138.7 110.726 138.699 110.726C138.699 110.726 138.698 110.726 138.697 110.726C138.697 110.726 138.696 110.726 138.696 110.726C138.695 110.726 138.694 110.726 138.694 110.726C138.693 110.726 138.693 110.726 138.692 110.726C138.691 110.726 138.691 110.726 138.69 110.726C138.689 110.726 138.689 110.726 138.688 110.726C138.688 110.726 138.687 110.726 138.686 110.726C138.686 110.726 138.685 110.726 138.685 110.726C138.684 110.726 138.683 110.726 138.683 110.726C138.682 110.726 138.682 110.726 138.681 110.726C138.68 110.726 138.68 110.726 138.679 110.726C138.679 110.726 138.678 110.726 138.677 110.726C138.677 110.726 138.676 110.726 138.675 110.726C138.675 110.726 138.674 110.726 138.674 110.726C138.673 110.726 138.672 110.726 138.672 110.726C138.671 110.726 138.671 110.726 138.67 110.726C138.669 110.726 138.669 110.726 138.668 110.726C138.668 110.726 138.667 110.726 138.666 110.726C138.666 110.726 138.665 110.726 138.665 110.726C138.664 110.726 138.663 110.726 138.663 110.726C138.662 110.726 138.661 110.726 138.661 110.726C138.66 110.726 138.66 110.726 138.659 110.726C138.658 110.726 138.658 110.726 138.657 110.726C138.657 110.726 138.656 110.726 138.655 110.726C138.655 110.726 138.654 110.726 138.654 110.726C138.653 110.726 138.652 110.726 138.652 110.726C138.651 110.726 138.651 110.726 138.65 110.726C138.649 110.726 138.649 110.726 138.648 110.726C138.648 110.726 138.647 110.726 138.646 110.726C138.646 110.726 138.645 110.726 138.645 110.726C138.644 110.726 138.643 110.726 138.643 110.726C138.642 110.726 138.641 110.726 138.641 110.726C138.64 110.726 138.64 110.726 138.639 110.726C138.638 110.726 138.638 110.726 138.637 110.726C138.637 110.726 138.636 110.726 138.635 110.726C138.635 110.726 138.634 110.726 138.634 110.726C138.633 110.726 138.632 110.726 138.632 110.726C138.631 110.726 138.631 110.726 138.63 110.726C138.629 110.726 138.629 110.726 138.628 110.726C138.628 110.726 138.627 110.726 138.626 110.726C138.626 110.726 138.625 110.726 138.625 110.726C138.624 110.726 138.623 110.726 138.623 110.726C138.622 110.726 138.621 110.726 138.621 110.726C138.62 110.726 138.62 110.726 138.619 110.726C138.618 110.726 138.618 110.726 138.617 110.726C138.617 110.726 138.616 110.726 138.615 110.726C138.615 110.726 138.614 110.726 138.614 110.726C138.613 110.726 138.612 110.726 138.612 110.726C138.611 110.726 138.611 110.726 138.61 110.726C138.609 110.726 138.609 110.726 138.608 110.726C138.608 110.726 138.607 110.726 138.606 110.726C138.606 110.726 138.605 110.726 138.605 110.726C138.604 110.726 138.603 110.726 138.603 110.726C138.602 110.726 138.602 110.726 138.601 110.726C138.6 110.726 138.6 110.726 138.599 110.726C138.599 110.726 138.598 110.726 138.597 110.726C138.597 110.726 138.596 110.726 138.596 110.726C138.595 110.726 138.594 110.726 138.594 110.726C138.593 110.726 138.593 110.726 138.592 110.726C138.591 110.726 138.591 110.726 138.59 110.726C138.59 110.726 138.589 110.726 138.588 110.726C138.588 110.726 138.587 110.726 138.587 110.726C138.586 110.726 138.585 110.726 138.585 110.726C138.584 110.726 138.584 110.726 138.583 110.726C138.582 110.726 138.582 110.726 138.581 110.726C138.58 110.726 138.58 110.726 138.579 110.726C138.579 110.726 138.578 110.726 138.577 110.726C138.577 110.726 138.576 110.726 138.576 110.726C138.575 110.726 138.574 110.726 138.574 110.726C138.573 110.726 138.573 110.726 138.572 110.726C138.571 110.726 138.571 110.726 138.57 110.726C138.57 110.726 138.569 110.726 138.568 110.726C138.568 110.726 138.567 110.726 138.567 110.726C138.566 110.726 138.565 110.726 138.565 110.726C138.564 110.726 138.564 110.726 138.563 110.726C138.562 110.726 138.562 110.726 138.561 110.726C138.561 110.726 138.56 110.726 138.559 110.726C138.559 110.726 138.558 110.726 138.558 110.726C138.557 110.726 138.556 110.726 138.556 110.726C138.555 110.726 138.555 110.726 138.554 110.726C138.553 110.726 138.553 110.726 138.552 110.726C138.552 110.726 138.551 110.726 138.55 110.726C138.55 110.726 138.549 110.726 138.549 110.726C138.548 110.726 138.547 110.726 138.547 110.726C138.546 110.726 138.546 110.726 138.545 110.726C138.545 110.726 138.544 110.726 138.543 110.726C138.543 110.726 138.542 110.726 138.542 110.726C138.541 110.726 138.54 110.726 138.54 110.726C138.539 110.726 138.539 110.726 138.538 110.726C138.537 110.726 138.537 110.726 138.536 110.726C138.536 110.726 138.535 110.726 138.534 110.726C138.534 110.726 138.533 110.726 138.533 110.726C138.532 110.726 138.531 110.726 138.531 110.726C138.53 110.726 138.53 110.726 138.529 110.726C138.528 110.726 138.528 110.726 138.527 110.726C138.527 110.726 138.526 110.726 138.525 110.726C138.525 110.726 138.524 110.726 138.524 110.726C138.523 110.726 138.522 110.726 138.522 110.726C138.521 110.726 138.521 110.726 138.52 110.726C138.519 110.726 138.519 110.726 138.518 110.726C138.518 110.726 138.517 110.726 138.516 110.726C138.516 110.726 138.515 110.726 138.515 110.726C138.514 110.726 138.513 110.726 138.513 110.726C138.512 110.726 138.512 110.726 138.511 110.726C138.51 110.726 138.51 110.726 138.509 110.726C138.509 110.726 138.508 110.726 138.507 110.726C138.507 110.726 138.506 110.726 138.506 110.726C138.505 110.726 138.505 110.726 138.504 110.726C138.503 110.726 138.503 110.726 138.502 110.726C138.502 110.726 138.501 110.726 138.5 110.726C138.5 110.726 138.499 110.726 138.499 110.726C138.498 110.726 138.497 110.726 138.497 110.726C138.496 110.726 138.496 110.726 138.495 110.726C138.494 110.726 138.494 110.726 138.493 110.726C138.493 110.726 138.492 110.726 138.491 110.726C138.491 110.726 138.49 110.726 138.49 110.726C138.489 110.726 138.488 110.726 138.488 110.726C138.487 110.726 138.487 110.726 138.486 110.726C138.485 110.726 138.485 110.726 138.484 110.726C138.484 110.726 138.483 110.726 138.483 110.726C138.482 110.726 138.481 110.726 138.481 110.726C138.48 110.726 138.48 110.726 138.479 110.726C138.478 110.726 138.478 110.726 138.477 110.726C138.477 110.726 138.476 110.726 138.475 110.726C138.475 110.726 138.474 110.726 138.474 110.726C138.473 110.726 138.472 110.726 138.472 110.726C138.471 110.726 138.471 110.726 138.47 110.726C138.469 110.726 138.469 110.726 138.468 110.726C138.468 110.726 138.467 110.726 138.467 110.726C138.466 110.726 138.465 110.726 138.465 110.726C138.464 110.726 138.464 110.726 138.463 110.726C138.462 110.726 138.462 110.726 138.461 110.726C138.461 110.726 138.46 110.726 138.459 110.726C138.459 110.726 138.458 110.726 138.458 110.726C138.457 110.726 138.456 110.726 138.456 110.726C138.455 110.726 138.455 110.726 138.454 110.726C138.453 110.726 138.453 110.726 138.452 110.726C138.452 110.726 138.451 110.726 138.451 110.726C138.45 110.726 138.449 110.726 138.449 110.726C138.448 110.726 138.448 110.726 138.447 110.726C138.446 110.726 138.446 110.726 138.445 110.726C138.445 110.726 138.444 110.726 138.443 110.726C138.443 110.726 138.442 110.726 138.442 110.726C138.441 110.726 138.441 110.726 138.44 110.726C138.439 110.726 138.439 110.726 138.438 110.726C138.438 110.726 138.437 110.726 138.436 110.726C138.436 110.726 138.435 110.726 138.435 110.726C138.434 110.726 138.433 110.726 138.433 110.726C138.432 110.726 138.432 110.726 138.431 110.726C138.43 110.726 138.43 110.726 138.429 110.726C138.429 110.726 138.428 110.726 138.428 110.726C138.427 110.726 138.426 110.726 138.426 110.726C138.425 110.726 138.425 110.726 138.424 110.726C138.423 110.726 138.423 110.726 138.422 110.726C138.422 110.726 138.421 110.726 138.42 110.726C138.42 110.726 138.419 110.726 138.419 110.726C138.418 110.726 138.418 110.726 138.417 110.726C138.416 110.726 138.416 110.726 138.415 110.726C138.415 110.726 138.414 110.726 138.413 110.726C138.413 110.726 138.412 110.726 138.412 110.726C138.411 110.726 138.41 110.726 138.41 110.726C138.409 110.726 138.409 110.726 138.408 110.726C138.408 110.726 138.407 110.726 138.406 110.726C138.406 110.726 138.405 110.726 138.405 110.726C138.404 110.726 138.403 110.726 138.403 110.726C138.402 110.726 138.402 110.726 138.401 110.726C138.4 110.726 138.4 110.726 138.399 110.726C138.399 110.726 138.398 110.726 138.398 110.726C138.397 110.726 138.396 110.726 138.396 110.726C138.395 110.726 138.395 110.726 138.394 110.726C138.393 110.726 138.393 110.726 138.392 110.726C138.392 110.726 138.391 110.726 138.391 110.726C138.39 110.726 138.389 110.726 138.389 110.726C138.388 110.726 138.388 110.726 138.387 110.726C138.386 110.726 138.386 110.726 138.385 110.726C138.385 110.726 138.384 110.726 138.383 110.726C138.383 110.726 138.382 110.726 138.382 110.726C138.381 110.726 138.381 110.726 138.38 110.726C138.379 110.726 138.379 110.726 138.378 110.726C138.378 110.726 138.377 110.726 138.376 110.726V116.726C138.377 116.726 138.378 116.726 138.378 116.726C138.379 116.726 138.379 116.726 138.38 116.726C138.381 116.726 138.381 116.726 138.382 116.726C138.382 116.726 138.383 116.726 138.383 116.726C138.384 116.726 138.385 116.726 138.385 116.726C138.386 116.726 138.386 116.726 138.387 116.726C138.388 116.726 138.388 116.726 138.389 116.726C138.389 116.726 138.39 116.726 138.391 116.726C138.391 116.726 138.392 116.726 138.392 116.726C138.393 116.726 138.393 116.726 138.394 116.726C138.395 116.726 138.395 116.726 138.396 116.726C138.396 116.726 138.397 116.726 138.398 116.726C138.398 116.726 138.399 116.726 138.399 116.726C138.4 116.726 138.4 116.726 138.401 116.726C138.402 116.726 138.402 116.726 138.403 116.726C138.403 116.726 138.404 116.726 138.405 116.726C138.405 116.726 138.406 116.726 138.406 116.726C138.407 116.726 138.408 116.726 138.408 116.726C138.409 116.726 138.409 116.726 138.41 116.726C138.41 116.726 138.411 116.726 138.412 116.726C138.412 116.726 138.413 116.726 138.413 116.726C138.414 116.726 138.415 116.726 138.415 116.726C138.416 116.726 138.416 116.726 138.417 116.726C138.418 116.726 138.418 116.726 138.419 116.726C138.419 116.726 138.42 116.726 138.42 116.726C138.421 116.726 138.422 116.726 138.422 116.726C138.423 116.726 138.423 116.726 138.424 116.726C138.425 116.726 138.425 116.726 138.426 116.726C138.426 116.726 138.427 116.726 138.428 116.726C138.428 116.726 138.429 116.726 138.429 116.726C138.43 116.726 138.43 116.726 138.431 116.726C138.432 116.726 138.432 116.726 138.433 116.726C138.433 116.726 138.434 116.726 138.435 116.726C138.435 116.726 138.436 116.726 138.436 116.726C138.437 116.726 138.438 116.726 138.438 116.726C138.439 116.726 138.439 116.726 138.44 116.726C138.441 116.726 138.441 116.726 138.442 116.726C138.442 116.726 138.443 116.726 138.443 116.726C138.444 116.726 138.445 116.726 138.445 116.726C138.446 116.726 138.446 116.726 138.447 116.726C138.448 116.726 138.448 116.726 138.449 116.726C138.449 116.726 138.45 116.726 138.451 116.726C138.451 116.726 138.452 116.726 138.452 116.726C138.453 116.726 138.453 116.726 138.454 116.726C138.455 116.726 138.455 116.726 138.456 116.726C138.456 116.726 138.457 116.726 138.458 116.726C138.458 116.726 138.459 116.726 138.459 116.726C138.46 116.726 138.461 116.726 138.461 116.726C138.462 116.726 138.462 116.726 138.463 116.726C138.464 116.726 138.464 116.726 138.465 116.726C138.465 116.726 138.466 116.726 138.467 116.726C138.467 116.726 138.468 116.726 138.468 116.726C138.469 116.726 138.469 116.726 138.47 116.726C138.471 116.726 138.471 116.726 138.472 116.726C138.472 116.726 138.473 116.726 138.474 116.726C138.474 116.726 138.475 116.726 138.475 116.726C138.476 116.726 138.477 116.726 138.477 116.726C138.478 116.726 138.478 116.726 138.479 116.726C138.48 116.726 138.48 116.726 138.481 116.726C138.481 116.726 138.482 116.726 138.483 116.726C138.483 116.726 138.484 116.726 138.484 116.726C138.485 116.726 138.485 116.726 138.486 116.726C138.487 116.726 138.487 116.726 138.488 116.726C138.488 116.726 138.489 116.726 138.49 116.726C138.49 116.726 138.491 116.726 138.491 116.726C138.492 116.726 138.493 116.726 138.493 116.726C138.494 116.726 138.494 116.726 138.495 116.726C138.496 116.726 138.496 116.726 138.497 116.726C138.497 116.726 138.498 116.726 138.499 116.726C138.499 116.726 138.5 116.726 138.5 116.726C138.501 116.726 138.502 116.726 138.502 116.726C138.503 116.726 138.503 116.726 138.504 116.726C138.505 116.726 138.505 116.726 138.506 116.726C138.506 116.726 138.507 116.726 138.507 116.726C138.508 116.726 138.509 116.726 138.509 116.726C138.51 116.726 138.51 116.726 138.511 116.726C138.512 116.726 138.512 116.726 138.513 116.726C138.513 116.726 138.514 116.726 138.515 116.726C138.515 116.726 138.516 116.726 138.516 116.726C138.517 116.726 138.518 116.726 138.518 116.726C138.519 116.726 138.519 116.726 138.52 116.726C138.521 116.726 138.521 116.726 138.522 116.726C138.522 116.726 138.523 116.726 138.524 116.726C138.524 116.726 138.525 116.726 138.525 116.726C138.526 116.726 138.527 116.726 138.527 116.726C138.528 116.726 138.528 116.726 138.529 116.726C138.53 116.726 138.53 116.726 138.531 116.726C138.531 116.726 138.532 116.726 138.533 116.726C138.533 116.726 138.534 116.726 138.534 116.726C138.535 116.726 138.536 116.726 138.536 116.726C138.537 116.726 138.537 116.726 138.538 116.726C138.539 116.726 138.539 116.726 138.54 116.726C138.54 116.726 138.541 116.726 138.542 116.726C138.542 116.726 138.543 116.726 138.543 116.726C138.544 116.726 138.545 116.726 138.545 116.726C138.546 116.726 138.546 116.726 138.547 116.726C138.547 116.726 138.548 116.726 138.549 116.726C138.549 116.726 138.55 116.726 138.55 116.726C138.551 116.726 138.552 116.726 138.552 116.726C138.553 116.726 138.553 116.726 138.554 116.726C138.555 116.726 138.555 116.726 138.556 116.726C138.556 116.726 138.557 116.726 138.558 116.726C138.558 116.726 138.559 116.726 138.559 116.726C138.56 116.726 138.561 116.726 138.561 116.726C138.562 116.726 138.562 116.726 138.563 116.726C138.564 116.726 138.564 116.726 138.565 116.726C138.565 116.726 138.566 116.726 138.567 116.726C138.567 116.726 138.568 116.726 138.568 116.726C138.569 116.726 138.57 116.726 138.57 116.726C138.571 116.726 138.571 116.726 138.572 116.726C138.573 116.726 138.573 116.726 138.574 116.726C138.574 116.726 138.575 116.726 138.576 116.726C138.576 116.726 138.577 116.726 138.577 116.726C138.578 116.726 138.579 116.726 138.579 116.726C138.58 116.726 138.58 116.726 138.581 116.726C138.582 116.726 138.582 116.726 138.583 116.726C138.584 116.726 138.584 116.726 138.585 116.726C138.585 116.726 138.586 116.726 138.587 116.726C138.587 116.726 138.588 116.726 138.588 116.726C138.589 116.726 138.59 116.726 138.59 116.726C138.591 116.726 138.591 116.726 138.592 116.726C138.593 116.726 138.593 116.726 138.594 116.726C138.594 116.726 138.595 116.726 138.596 116.726C138.596 116.726 138.597 116.726 138.597 116.726C138.598 116.726 138.599 116.726 138.599 116.726C138.6 116.726 138.6 116.726 138.601 116.726C138.602 116.726 138.602 116.726 138.603 116.726C138.603 116.726 138.604 116.726 138.605 116.726C138.605 116.726 138.606 116.726 138.606 116.726C138.607 116.726 138.608 116.726 138.608 116.726C138.609 116.726 138.609 116.726 138.61 116.726C138.611 116.726 138.611 116.726 138.612 116.726C138.612 116.726 138.613 116.726 138.614 116.726C138.614 116.726 138.615 116.726 138.615 116.726C138.616 116.726 138.617 116.726 138.617 116.726C138.618 116.726 138.618 116.726 138.619 116.726C138.62 116.726 138.62 116.726 138.621 116.726C138.621 116.726 138.622 116.726 138.623 116.726C138.623 116.726 138.624 116.726 138.625 116.726C138.625 116.726 138.626 116.726 138.626 116.726C138.627 116.726 138.628 116.726 138.628 116.726C138.629 116.726 138.629 116.726 138.63 116.726C138.631 116.726 138.631 116.726 138.632 116.726C138.632 116.726 138.633 116.726 138.634 116.726C138.634 116.726 138.635 116.726 138.635 116.726C138.636 116.726 138.637 116.726 138.637 116.726C138.638 116.726 138.638 116.726 138.639 116.726C138.64 116.726 138.64 116.726 138.641 116.726C138.641 116.726 138.642 116.726 138.643 116.726C138.643 116.726 138.644 116.726 138.645 116.726C138.645 116.726 138.646 116.726 138.646 116.726C138.647 116.726 138.648 116.726 138.648 116.726C138.649 116.726 138.649 116.726 138.65 116.726C138.651 116.726 138.651 116.726 138.652 116.726C138.652 116.726 138.653 116.726 138.654 116.726C138.654 116.726 138.655 116.726 138.655 116.726C138.656 116.726 138.657 116.726 138.657 116.726C138.658 116.726 138.658 116.726 138.659 116.726C138.66 116.726 138.66 116.726 138.661 116.726C138.661 116.726 138.662 116.726 138.663 116.726C138.663 116.726 138.664 116.726 138.665 116.726C138.665 116.726 138.666 116.726 138.666 116.726C138.667 116.726 138.668 116.726 138.668 116.726C138.669 116.726 138.669 116.726 138.67 116.726C138.671 116.726 138.671 116.726 138.672 116.726C138.672 116.726 138.673 116.726 138.674 116.726C138.674 116.726 138.675 116.726 138.675 116.726C138.676 116.726 138.677 116.726 138.677 116.726C138.678 116.726 138.679 116.726 138.679 116.726C138.68 116.726 138.68 116.726 138.681 116.726C138.682 116.726 138.682 116.726 138.683 116.726C138.683 116.726 138.684 116.726 138.685 116.726C138.685 116.726 138.686 116.726 138.686 116.726C138.687 116.726 138.688 116.726 138.688 116.726C138.689 116.726 138.689 116.726 138.69 116.726C138.691 116.726 138.691 116.726 138.692 116.726C138.693 116.726 138.693 116.726 138.694 116.726C138.694 116.726 138.695 116.726 138.696 116.726C138.696 116.726 138.697 116.726 138.697 116.726C138.698 116.726 138.699 116.726 138.699 116.726C138.7 116.726 138.7 116.726 138.701 116.726C138.702 116.726 138.702 116.726 138.703 116.726C138.704 116.726 138.704 116.726 138.705 116.726C138.705 116.726 138.706 116.726 138.707 116.726C138.707 116.726 138.708 116.726 138.708 116.726C138.709 116.726 138.71 116.726 138.71 116.726C138.711 116.726 138.711 116.726 138.712 116.726C138.713 116.726 138.713 116.726 138.714 116.726C138.715 116.726 138.715 116.726 138.716 116.726C138.716 116.726 138.717 116.726 138.718 116.726C138.718 116.726 138.719 116.726 138.719 116.726C138.72 116.726 138.721 116.726 138.721 116.726C138.722 116.726 138.723 116.726 138.723 116.726C138.724 116.726 138.724 116.726 138.725 116.726C138.726 116.726 138.726 116.726 138.727 116.726C138.727 116.726 138.728 116.726 138.729 116.726C138.729 116.726 138.73 116.726 138.73 116.726C138.731 116.726 138.732 116.726 138.732 116.726C138.733 116.726 138.734 116.726 138.734 116.726C138.735 116.726 138.735 116.726 138.736 116.726C138.737 116.726 138.737 116.726 138.738 116.726C138.738 116.726 138.739 116.726 138.74 116.726C138.74 116.726 138.741 116.726 138.742 116.726C138.742 116.726 138.743 116.726 138.743 116.726C138.744 116.726 138.745 116.726 138.745 116.726C138.746 116.726 138.746 116.726 138.747 116.726C138.748 116.726 138.748 116.726 138.749 116.726C138.749 116.726 138.75 116.726 138.751 116.726C138.751 116.726 138.752 116.726 138.753 116.726C138.753 116.726 138.754 116.726 138.754 116.726C138.755 116.726 138.756 116.726 138.756 116.726C138.757 116.726 138.757 116.726 138.758 116.726C138.759 116.726 138.759 116.726 138.76 116.726C138.761 116.726 138.761 116.726 138.762 116.726C138.762 116.726 138.763 116.726 138.764 116.726C138.764 116.726 138.765 116.726 138.765 116.726C138.766 116.726 138.767 116.726 138.767 116.726C138.768 116.726 138.769 116.726 138.769 116.726C138.77 116.726 138.77 116.726 138.771 116.726C138.772 116.726 138.772 116.726 138.773 116.726C138.773 116.726 138.774 116.726 138.775 116.726C138.775 116.726 138.776 116.726 138.777 116.726C138.777 116.726 138.778 116.726 138.778 116.726C138.779 116.726 138.78 116.726 138.78 116.726C138.781 116.726 138.782 116.726 138.782 116.726C138.783 116.726 138.783 116.726 138.784 116.726C138.785 116.726 138.785 116.726 138.786 116.726C138.786 116.726 138.787 116.726 138.788 116.726C138.788 116.726 138.789 116.726 138.79 116.726C138.79 116.726 138.791 116.726 138.791 116.726C138.792 116.726 138.793 116.726 138.793 116.726C138.794 116.726 138.794 116.726 138.795 116.726C138.796 116.726 138.796 116.726 138.797 116.726C138.798 116.726 138.798 116.726 138.799 116.726C138.799 116.726 138.8 116.726 138.801 116.726C138.801 116.726 138.802 116.726 138.803 116.726C138.803 116.726 138.804 116.726 138.804 116.726C138.805 116.726 138.806 116.726 138.806 116.726C138.807 116.726 138.807 116.726 138.808 116.726C138.809 116.726 138.809 116.726 138.81 116.726C138.811 116.726 138.811 116.726 138.812 116.726C138.812 116.726 138.813 116.726 138.814 116.726C138.814 116.726 138.815 116.726 138.816 116.726C138.816 116.726 138.817 116.726 138.817 116.726C138.818 116.726 138.819 116.726 138.819 116.726C138.82 116.726 138.82 116.726 138.821 116.726C138.822 116.726 138.822 116.726 138.823 116.726C138.824 116.726 138.824 116.726 138.825 116.726C138.825 116.726 138.826 116.726 138.827 116.726C138.827 116.726 138.828 116.726 138.829 116.726C138.829 116.726 138.83 116.726 138.83 116.726C138.831 116.726 138.832 116.726 138.832 116.726C138.833 116.726 138.834 116.726 138.834 116.726C138.835 116.726 138.835 116.726 138.836 116.726C138.837 116.726 138.837 116.726 138.838 116.726C138.838 116.726 138.839 116.726 138.84 116.726C138.84 116.726 138.841 116.726 138.842 116.726C138.842 116.726 138.843 116.726 138.843 116.726C138.844 116.726 138.845 116.726 138.845 116.726C138.846 116.726 138.847 116.726 138.847 116.726C138.848 116.726 138.848 116.726 138.849 116.726C138.85 116.726 138.85 116.726 138.851 116.726C138.852 116.726 138.852 116.726 138.853 116.726C138.853 116.726 138.854 116.726 138.855 116.726C138.855 116.726 138.856 116.726 138.857 116.726C138.857 116.726 138.858 116.726 138.858 116.726C138.859 116.726 138.86 116.726 138.86 116.726C138.861 116.726 138.862 116.726 138.862 116.726C138.863 116.726 138.863 116.726 138.864 116.726C138.865 116.726 138.865 116.726 138.866 116.726C138.866 116.726 138.867 116.726 138.868 116.726C138.868 116.726 138.869 116.726 138.87 116.726C138.87 116.726 138.871 116.726 138.871 116.726C138.872 116.726 138.873 116.726 138.873 116.726C138.874 116.726 138.875 116.726 138.875 116.726C138.876 116.726 138.876 116.726 138.877 116.726C138.878 116.726 138.878 116.726 138.879 116.726C138.88 116.726 138.88 116.726 138.881 116.726C138.881 116.726 138.882 116.726 138.883 116.726C138.883 116.726 138.884 116.726 138.885 116.726C138.885 116.726 138.886 116.726 138.886 116.726C138.887 116.726 138.888 116.726 138.888 116.726C138.889 116.726 138.89 116.726 138.89 116.726C138.891 116.726 138.891 116.726 138.892 116.726C138.893 116.726 138.893 116.726 138.894 116.726C138.895 116.726 138.895 116.726 138.896 116.726C138.896 116.726 138.897 116.726 138.898 116.726C138.898 116.726 138.899 116.726 138.9 116.726C138.9 116.726 138.901 116.726 138.901 116.726C138.902 116.726 138.903 116.726 138.903 116.726C138.904 116.726 138.905 116.726 138.905 116.726C138.906 116.726 138.906 116.726 138.907 116.726C138.908 116.726 138.908 116.726 138.909 116.726C138.91 116.726 138.91 116.726 138.911 116.726C138.912 116.726 138.912 116.726 138.913 116.726C138.913 116.726 138.914 116.726 138.915 116.726C138.915 116.726 138.916 116.726 138.917 116.726C138.917 116.726 138.918 116.726 138.918 116.726C138.919 116.726 138.92 116.726 138.92 116.726C138.921 116.726 138.922 116.726 138.922 116.726C138.923 116.726 138.923 116.726 138.924 116.726C138.925 116.726 138.925 116.726 138.926 116.726C138.927 116.726 138.927 116.726 138.928 116.726C138.928 116.726 138.929 116.726 138.93 116.726C138.93 116.726 138.931 116.726 138.932 116.726C138.932 116.726 138.933 116.726 138.933 116.726C138.934 116.726 138.935 116.726 138.935 116.726C138.936 116.726 138.937 116.726 138.937 116.726C138.938 116.726 138.939 116.726 138.939 116.726C138.94 116.726 138.94 116.726 138.941 116.726C138.942 116.726 138.942 116.726 138.943 116.726C138.944 116.726 138.944 116.726 138.945 116.726C138.945 116.726 138.946 116.726 138.947 116.726C138.947 116.726 138.948 116.726 138.949 116.726C138.949 116.726 138.95 116.726 138.95 116.726C138.951 116.726 138.952 116.726 138.952 116.726C138.953 116.726 138.954 116.726 138.954 116.726C138.955 116.726 138.956 116.726 138.956 116.726C138.957 116.726 138.957 116.726 138.958 116.726C138.959 116.726 138.959 116.726 138.96 116.726C138.961 116.726 138.961 116.726 138.962 116.726C138.962 116.726 138.963 116.726 138.964 116.726C138.964 116.726 138.965 116.726 138.966 116.726C138.966 116.726 138.967 116.726 138.967 116.726C138.968 116.726 138.969 116.726 138.969 116.726C138.97 116.726 138.971 116.726 138.971 116.726C138.972 116.726 138.973 116.726 138.973 116.726C138.974 116.726 138.974 116.726 138.975 116.726C138.976 116.726 138.976 116.726 138.977 116.726C138.978 116.726 138.978 116.726 138.979 116.726C138.979 116.726 138.98 116.726 138.981 116.726C138.981 116.726 138.982 116.726 138.983 116.726C138.983 116.726 138.984 116.726 138.985 116.726C138.985 116.726 138.986 116.726 138.986 116.726C138.987 116.726 138.988 116.726 138.988 116.726C138.989 116.726 138.99 116.726 138.99 116.726C138.991 116.726 138.992 116.726 138.992 116.726C138.993 116.726 138.993 116.726 138.994 116.726C138.995 116.726 138.995 116.726 138.996 116.726C138.997 116.726 138.997 116.726 138.998 116.726C138.998 116.726 138.999 116.726 139 116.726C139 116.726 139.001 116.726 139.002 116.726C139.002 116.726 139.003 116.726 139.004 116.726C139.004 116.726 139.005 116.726 139.005 116.726C139.006 116.726 139.007 116.726 139.007 116.726C139.008 116.726 139.009 116.726 139.009 116.726C139.01 116.726 139.011 116.726 139.011 116.726C139.012 116.726 139.012 116.726 139.013 116.726C139.014 116.726 139.014 116.726 139.015 116.726C139.016 116.726 139.016 116.726 139.017 116.726C139.018 116.726 139.018 116.726 139.019 116.726C139.019 116.726 139.02 116.726 139.021 116.726C139.021 116.726 139.022 116.726 139.023 116.726C139.023 116.726 139.024 116.726 139.024 116.726C139.025 116.726 139.026 116.726 139.026 116.726C139.027 116.726 139.028 116.726 139.028 116.726C139.029 116.726 139.03 116.726 139.03 116.726C139.031 116.726 139.031 116.726 139.032 116.726C139.033 116.726 139.033 116.726 139.034 116.726C139.035 116.726 139.035 116.726 139.036 116.726C139.037 116.726 139.037 116.726 139.038 116.726C139.038 116.726 139.039 116.726 139.04 116.726C139.04 116.726 139.041 116.726 139.042 116.726C139.042 116.726 139.043 116.726 139.044 116.726C139.044 116.726 139.045 116.726 139.045 116.726C139.046 116.726 139.047 116.726 139.047 116.726C139.048 116.726 139.049 116.726 139.049 116.726C139.05 116.726 139.051 116.726 139.051 116.726C139.052 116.726 139.052 116.726 139.053 116.726C139.054 116.726 139.054 116.726 139.055 116.726C139.056 116.726 139.056 116.726 139.057 116.726C139.058 116.726 139.058 116.726 139.059 116.726C139.06 116.726 139.06 116.726 139.061 116.726C139.061 116.726 139.062 116.726 139.063 116.726C139.063 116.726 139.064 116.726 139.065 116.726C139.065 116.726 139.066 116.726 139.067 116.726C139.067 116.726 139.068 116.726 139.068 116.726C139.069 116.726 139.07 116.726 139.07 116.726C139.071 116.726 139.072 116.726 139.072 116.726C139.073 116.726 139.074 116.726 139.074 116.726C139.075 116.726 139.075 116.726 139.076 116.726C139.077 116.726 139.077 116.726 139.078 116.726C139.079 116.726 139.079 116.726 139.08 116.726C139.081 116.726 139.081 116.726 139.082 116.726C139.083 116.726 139.083 116.726 139.084 116.726C139.084 116.726 139.085 116.726 139.086 116.726C139.086 116.726 139.087 116.726 139.088 116.726C139.088 116.726 139.089 116.726 139.09 116.726C139.09 116.726 139.091 116.726 139.091 116.726C139.092 116.726 139.093 116.726 139.093 116.726C139.094 116.726 139.095 116.726 139.095 116.726C139.096 116.726 139.097 116.726 139.097 116.726C139.098 116.726 139.099 116.726 139.099 116.726C139.1 116.726 139.1 116.726 139.101 116.726C139.102 116.726 139.102 116.726 139.103 116.726C139.104 116.726 139.104 116.726 139.105 116.726C139.106 116.726 139.106 116.726 139.107 116.726C139.108 116.726 139.108 116.726 139.109 116.726C139.109 116.726 139.11 116.726 139.111 116.726C139.111 116.726 139.112 116.726 139.113 116.726C139.113 116.726 139.114 116.726 139.115 116.726C139.115 116.726 139.116 116.726 139.116 116.726C139.117 116.726 139.118 116.726 139.118 116.726C139.119 116.726 139.12 116.726 139.12 116.726C139.121 116.726 139.122 116.726 139.122 116.726C139.123 116.726 139.124 116.726 139.124 116.726C139.125 116.726 139.125 116.726 139.126 116.726C139.127 116.726 139.127 116.726 139.128 116.726C139.129 116.726 139.129 116.726 139.13 116.726C139.131 116.726 139.131 116.726 139.132 116.726C139.133 116.726 139.133 116.726 139.134 116.726C139.134 116.726 139.135 116.726 139.136 116.726C139.136 116.726 139.137 116.726 139.138 116.726C139.138 116.726 139.139 116.726 139.14 116.726C139.14 116.726 139.141 116.726 139.142 116.726C139.142 116.726 139.143 116.726 139.144 116.726C139.144 116.726 139.145 116.726 139.145 116.726C139.146 116.726 139.147 116.726 139.147 116.726C139.148 116.726 139.149 116.726 139.149 116.726C139.15 116.726 139.151 116.726 139.151 116.726C139.152 116.726 139.153 116.726 139.153 116.726C139.154 116.726 139.154 116.726 139.155 116.726C139.156 116.726 139.156 116.726 139.157 116.726C139.158 116.726 139.158 116.726 139.159 116.726C139.16 116.726 139.16 116.726 139.161 116.726C139.162 116.726 139.162 116.726 139.163 116.726C139.164 116.726 139.164 116.726 139.165 116.726C139.165 116.726 139.166 116.726 139.167 116.726C139.167 116.726 139.168 116.726 139.169 116.726C139.169 116.726 139.17 116.726 139.171 116.726C139.171 116.726 139.172 116.726 139.173 116.726C139.173 116.726 139.174 116.726 139.174 116.726C139.175 116.726 139.176 116.726 139.176 116.726C139.177 116.726 139.178 116.726 139.178 116.726C139.179 116.726 139.18 116.726 139.18 116.726C139.181 116.726 139.182 116.726 139.182 116.726C139.183 116.726 139.184 116.726 139.184 116.726C139.185 116.726 139.185 116.726 139.186 116.726C139.187 116.726 139.187 116.726 139.188 116.726C139.189 116.726 139.189 116.726 139.19 116.726C139.191 116.726 139.191 116.726 139.192 116.726C139.193 116.726 139.193 116.726 139.194 116.726C139.195 116.726 139.195 116.726 139.196 116.726C139.197 116.726 139.197 116.726 139.198 116.726C139.198 116.726 139.199 116.726 139.2 116.726C139.2 116.726 139.201 116.726 139.202 116.726C139.202 116.726 139.203 116.726 139.204 116.726C139.204 116.726 139.205 116.726 139.206 116.726C139.206 116.726 139.207 116.726 139.208 116.726C139.208 116.726 139.209 116.726 139.209 116.726C139.21 116.726 139.211 116.726 139.211 116.726C139.212 116.726 139.213 116.726 139.213 116.726C139.214 116.726 139.215 116.726 139.215 116.726C139.216 116.726 139.217 116.726 139.217 116.726C139.218 116.726 139.219 116.726 139.219 116.726C139.22 116.726 139.221 116.726 139.221 116.726C139.222 116.726 139.222 116.726 139.223 116.726C139.224 116.726 139.224 116.726 139.225 116.726C139.226 116.726 139.226 116.726 139.227 116.726C139.228 116.726 139.228 116.726 139.229 116.726C139.23 116.726 139.23 116.726 139.231 116.726C139.232 116.726 139.232 116.726 139.233 116.726C139.234 116.726 139.234 116.726 139.235 116.726C139.235 116.726 139.236 116.726 139.237 116.726C139.237 116.726 139.238 116.726 139.239 116.726C139.239 116.726 139.24 116.726 139.241 116.726C139.241 116.726 139.242 116.726 139.243 116.726C139.243 116.726 139.244 116.726 139.245 116.726C139.245 116.726 139.246 116.726 139.247 116.726C139.247 116.726 139.248 116.726 139.249 116.726C139.249 116.726 139.25 116.726 139.25 116.726C139.251 116.726 139.252 116.726 139.252 116.726C139.253 116.726 139.254 116.726 139.254 116.726C139.255 116.726 139.256 116.726 139.256 116.726C139.257 116.726 139.258 116.726 139.258 116.726C139.259 116.726 139.26 116.726 139.26 116.726C139.261 116.726 139.262 116.726 139.262 116.726C139.263 116.726 139.264 116.726 139.264 116.726C139.265 116.726 139.265 116.726 139.266 116.726C139.267 116.726 139.267 116.726 139.268 116.726C139.269 116.726 139.269 116.726 139.27 116.726C139.271 116.726 139.271 116.726 139.272 116.726C139.273 116.726 139.273 116.726 139.274 116.726C139.275 116.726 139.275 116.726 139.276 116.726C139.277 116.726 139.277 116.726 139.278 116.726C139.279 116.726 139.279 116.726 139.28 116.726C139.281 116.726 139.281 116.726 139.282 116.726C139.282 116.726 139.283 116.726 139.284 116.726C139.284 116.726 139.285 116.726 139.286 116.726C139.286 116.726 139.287 116.726 139.288 116.726C139.288 116.726 139.289 116.726 139.29 116.726C139.29 116.726 139.291 116.726 139.292 116.726C139.292 116.726 139.293 116.726 139.294 116.726C139.294 116.726 139.295 116.726 139.296 116.726C139.296 116.726 139.297 116.726 139.298 116.726C139.298 116.726 139.299 116.726 139.3 116.726C139.3 116.726 139.301 116.726 139.301 116.726C139.302 116.726 139.303 116.726 139.303 116.726C139.304 116.726 139.305 116.726 139.305 116.726C139.306 116.726 139.307 116.726 139.307 116.726C139.308 116.726 139.309 116.726 139.309 116.726C139.31 116.726 139.311 116.726 139.311 116.726C139.312 116.726 139.313 116.726 139.313 116.726C139.314 116.726 139.315 116.726 139.315 116.726C139.316 116.726 139.317 116.726 139.317 116.726C139.318 116.726 139.319 116.726 139.319 116.726C139.32 116.726 139.321 116.726 139.321 116.726C139.322 116.726 139.323 116.726 139.323 116.726C139.324 116.726 139.324 116.726 139.325 116.726C139.326 116.726 139.326 116.726 139.327 116.726C139.328 116.726 139.328 116.726 139.329 116.726C139.33 116.726 139.33 116.726 139.331 116.726V110.726ZM141.376 113.726V100.53H135.376V113.726H141.376ZM138.376 103.53H139.556V97.5298H138.376V103.53ZM139.556 103.53C143.725 103.53 147.403 102.627 150.154 100.385L146.364 95.7334C145.073 96.7855 142.948 97.5298 139.556 97.5298V103.53ZM150.154 100.385C153.02 98.0498 154.292 94.7127 154.292 90.8716H148.292C148.292 93.3196 147.542 94.7741 146.364 95.7334L150.154 100.385ZM154.292 90.8716C154.292 87.592 153.127 84.7227 150.731 82.5355L146.686 86.9664C147.734 87.9238 148.292 89.1349 148.292 90.8716H154.292ZM150.755 82.5578C148.43 80.3876 145.488 79.3926 142.195 79.3926V85.3926C144.218 85.3926 145.618 85.9698 146.662 86.9441L150.755 82.5578ZM142.195 79.3926C138.807 79.3926 135.757 80.3187 133.473 82.5481L137.664 86.8415C138.525 86.0013 139.893 85.3926 142.195 85.3926V79.3926ZM133.473 82.5481C131.199 84.7682 130.189 87.7673 130.099 91.1285L136.097 91.2885C136.157 89.0345 136.794 87.6911 137.664 86.8415L133.473 82.5481ZM133.098 88.2085H113.22V94.2085H133.098V88.2085ZM116.22 91.267C116.355 84.3329 118.727 79.2692 123.142 75.6799L119.358 71.0242C113.366 75.8951 110.385 82.7358 110.221 91.15L116.22 91.267ZM123.144 75.6784C127.675 71.9893 134.233 69.9507 143.206 69.9507V63.9507C133.385 63.9507 125.307 66.1797 119.356 71.0257L123.144 75.6784ZM143.206 69.9507C151.16 69.9507 157.007 71.7617 161.102 75.0244L164.841 70.332C159.352 65.958 152.022 63.9507 143.206 63.9507V69.9507ZM161.122 75.0404C165.174 78.2131 167.215 82.4627 167.215 88.1201H173.215C173.215 80.7502 170.427 74.7052 164.821 70.3161L161.122 75.0404ZM167.215 88.1201C167.215 91.7144 166.271 94.5933 164.509 96.9231L169.294 100.543C171.95 97.0326 173.215 92.8364 173.215 88.1201H167.215ZM164.521 96.9083C162.766 99.1977 160.125 100.989 156.356 102.156L158.131 107.888C162.823 106.435 166.62 104.033 169.283 100.558L164.521 96.9083ZM156.705 107.973C161.232 108.799 164.533 110.724 166.861 113.634L171.547 109.886C168.185 105.684 163.513 103.116 157.782 102.071L156.705 107.973ZM166.871 113.646C169.197 116.523 170.472 120.323 170.472 125.293H176.472C176.472 119.257 174.901 114.035 171.537 109.874L166.871 113.646ZM170.472 125.293C170.472 132.455 167.961 138.089 162.961 142.464L166.912 146.979C173.293 141.396 176.472 134.078 176.472 125.293H170.472ZM162.954 142.47C157.96 146.869 151.323 149.19 142.756 149.19V155.19C152.458 155.19 160.608 152.532 166.919 146.973L162.954 142.47ZM142.756 149.19C133.719 149.19 126.911 146.784 121.982 142.282L117.935 146.712C124.237 152.467 132.627 155.19 142.756 155.19V149.19ZM121.997 142.296C117.13 137.789 114.592 131.658 114.592 123.552H108.592C108.592 133.041 111.631 140.873 117.92 146.698L121.997 142.296ZM114.592 123.552V122.766H108.592V123.552H114.592Z" fill="white"></path> <rect x="1.5" y="1.5" width="210" height="210" stroke="#B61C18" stroke-width="3"></rect> </svg> 