<?xml version="1.0" encoding="UTF-8"?> <svg xmlns="http://www.w3.org/2000/svg" width="686" height="765" viewBox="0 0 686 765" fill="none"> <path d="M343.143 764.998C330.409 765.106 317.895 761.686 306.987 755.116L170.673 675.394C119.642 646.855 77.0489 605.35 47.1989 555.074C17.3489 504.798 1.29972 447.534 0.67334 389.068V171.235C0.679379 156.556 5.18061 142.23 13.5716 130.186C21.9625 118.141 33.8407 108.956 47.6085 103.864L318.44 4.37921C334.391 -1.45974 351.894 -1.45974 367.845 4.37921L638.677 103.864C652.444 108.956 664.323 118.141 672.714 130.186C681.104 142.23 685.606 156.556 685.612 171.235V389.068C684.985 447.534 668.936 504.798 639.086 555.074C609.236 605.35 566.643 646.855 515.612 675.394L379.298 755.116C368.39 761.686 355.876 765.106 343.143 764.998ZM343.143 56.2549C341.361 55.9305 339.535 55.9305 337.753 56.2549L66.9215 156.188C63.8708 157.318 61.2531 159.379 59.4393 162.08C57.6255 164.78 56.7077 167.983 56.8158 171.235V389.068C57.4671 437.716 70.956 485.329 95.9178 527.089C120.88 568.85 156.429 603.277 198.969 626.887L335.283 706.834C337.693 708.151 340.396 708.841 343.143 708.841C345.889 708.841 348.592 708.151 351.003 706.834L487.316 626.887C529.856 603.277 565.405 568.85 590.367 527.089C615.329 485.329 628.818 437.716 629.469 389.068V171.235C629.483 168.059 628.522 164.956 626.714 162.345C624.907 159.735 622.341 157.742 619.364 156.638L348.532 57.1531C346.806 56.5273 344.979 56.2228 343.143 56.2549V56.2549Z" fill="#272727"></path> <path d="M318.439 493.493C311.812 493.45 305.398 491.153 300.249 486.98L204.358 406.135C198.64 401.341 195.061 394.471 194.408 387.038C193.755 379.605 196.082 372.216 200.877 366.499C205.671 360.781 212.541 357.202 219.974 356.549C227.408 355.897 234.796 358.223 240.513 363.018L315.744 426.347L444.198 284.868C449.201 279.329 456.2 276.004 463.654 275.625C471.109 275.246 478.408 277.843 483.947 282.846C489.486 287.849 492.811 294.848 493.19 302.302C493.569 309.757 490.971 317.056 485.968 322.595L340.447 484.286C337.661 487.318 334.251 489.712 330.452 491.301C326.653 492.89 322.555 493.638 318.439 493.493V493.493Z" fill="#272727"></path> </svg> 