<?xml version="1.0" encoding="UTF-8"?> <svg xmlns="http://www.w3.org/2000/svg" width="451" height="78" viewBox="0 0 451 78" fill="none"> <path d="M38.6016 48.6816H37.6016V49.6816H38.6016V48.6816ZM38.6016 33.6914V32.6914H37.6016V33.6914H38.6016ZM76.8828 33.6914L77.8806 33.6249L77.8184 32.6914H76.8828V33.6914ZM76.9316 35.3027H75.9316V35.3305L75.9332 35.3582L76.9316 35.3027ZM67.2148 66.5527L66.4924 65.8614L66.4923 65.8614L67.2148 66.5527ZM24.3438 74.1211L23.9793 75.0524L23.9875 75.0555L24.3438 74.1211ZM12.2832 66.1133L11.5727 66.817L11.5729 66.8172L12.2832 66.1133ZM4.37305 54.0039L3.44321 54.372L3.44637 54.3798L4.37305 54.0039ZM4.32422 24.6094L5.24988 24.9877L5.25083 24.9854L4.32422 24.6094ZM12.4785 12.5L11.7812 11.7832L11.7746 11.7897L12.4785 12.5ZM24.7832 4.58984L24.4242 3.6565L24.422 3.65735L24.7832 4.58984ZM58.377 6.05469L57.919 6.94366L57.9212 6.94478L58.377 6.05469ZM72 18.4082L72.4326 19.3098L73.4752 18.8096L72.8298 17.8501L72 18.4082ZM55.1055 26.5137L54.2976 27.103L54.7879 27.7752L55.538 27.4153L55.1055 26.5137ZM48.2695 20.3613L47.7907 21.2392L47.7974 21.2429L47.8043 21.2465L48.2695 20.3613ZM26.0527 24.1699L26.8088 24.8244L26.8115 24.8212L26.0527 24.1699ZM52.1758 58.3984L52.7668 59.2051L52.7682 59.2041L52.1758 58.3984ZM57.9863 48.6816L58.9771 48.8175L59.1328 47.6816H57.9863V48.6816ZM39.6016 48.6816V33.6914H37.6016V48.6816H39.6016ZM38.6016 34.6914H76.8828V32.6914H38.6016V34.6914ZM75.885 33.7579C75.9158 34.2203 75.9316 34.7348 75.9316 35.3027H77.9316C77.9316 34.6988 77.9149 34.1391 77.8806 33.6249L75.885 33.7579ZM75.9332 35.3582C75.9642 35.9157 75.9805 36.7561 75.9805 37.8906H77.9805C77.9805 36.7465 77.9642 35.8616 77.9301 35.2473L75.9332 35.3582ZM75.9805 37.8906C75.9805 50.0194 72.7752 59.2957 66.4924 65.8614L67.9373 67.2441C74.6753 60.203 77.9805 50.3713 77.9805 37.8906H75.9805ZM66.4923 65.8614C60.2491 72.387 51.4078 75.709 39.8223 75.709V77.709C51.8044 77.709 61.2249 74.2601 67.9374 67.244L66.4923 65.8614ZM39.8223 75.709C34.1264 75.709 29.0911 74.861 24.7 73.1867L23.9875 75.0555C28.6459 76.8317 33.9296 77.709 39.8223 77.709V75.709ZM24.7081 73.1899C20.3517 71.4852 16.448 68.8956 12.9935 65.4094L11.5729 66.8172C15.2147 70.4924 19.3514 73.2414 23.9794 75.0523L24.7081 73.1899ZM12.9937 65.4096C9.70539 62.0897 7.1403 58.166 5.29973 53.6281L3.44637 54.3798C5.38184 59.1517 8.09018 63.301 11.5727 66.817L12.9937 65.4096ZM5.30285 53.6359C3.49441 49.0672 2.58984 44.2931 2.58984 39.3066H0.589844C0.589844 44.5416 1.54075 49.5657 3.44324 54.372L5.30285 53.6359ZM2.58984 39.3066C2.58984 34.0838 3.4811 29.3149 5.24987 24.9877L3.39856 24.231C1.52151 28.8231 0.589844 33.8524 0.589844 39.3066H2.58984ZM5.25083 24.9854C7.02039 20.6247 9.66039 16.7006 13.1824 13.2103L11.7746 11.7897C8.07008 15.4609 5.27388 19.6097 3.39761 24.2334L5.25083 24.9854ZM13.1758 13.2168C16.6609 9.82675 20.6484 7.26375 25.1444 5.52234L24.422 3.65735C19.6732 5.49666 15.4576 8.2071 11.7813 11.7832L13.1758 13.2168ZM25.1422 5.52319C29.674 3.78017 34.5644 2.9043 39.8223 2.9043V0.904297C34.3379 0.904297 29.2023 1.81879 24.4242 3.6565L25.1422 5.52319ZM39.8223 2.9043C46.6869 2.9043 52.7104 4.26046 57.919 6.94366L58.8349 5.16571C53.3013 2.31506 46.955 0.904297 39.8223 0.904297V2.9043ZM57.9212 6.94478C63.1613 9.62799 67.5781 13.6258 71.1702 18.9663L72.8298 17.8501C69.0652 12.2532 64.3999 8.01524 58.8327 5.16459L57.9212 6.94478ZM71.5674 17.5066L54.6729 25.6121L55.538 27.4153L72.4326 19.3098L71.5674 17.5066ZM55.9134 25.9244C53.8224 23.0576 51.433 20.8944 48.7348 19.4762L47.8043 21.2465C50.1842 22.4975 52.3521 24.4358 54.2976 27.103L55.9134 25.9244ZM48.7484 19.4834C46.0814 18.0287 43.0984 17.3105 39.8223 17.3105V19.3105C42.7961 19.3105 45.4446 19.9596 47.7907 21.2392L48.7484 19.4834ZM39.8223 17.3105C33.7467 17.3105 28.8631 19.3604 25.2939 23.5186L26.8115 24.8212C29.9481 21.167 34.2441 19.3105 39.8223 19.3105V17.3105ZM25.2966 23.5155C21.7425 27.6217 20.0234 33.1863 20.0234 40.0879H22.0234C22.0234 33.513 23.6573 28.4655 26.8088 24.8244L25.2966 23.5155ZM20.0234 40.0879C20.0234 47.0523 21.7413 52.6646 25.2939 56.8037L26.8115 55.501C23.6585 51.8275 22.0234 46.7302 22.0234 40.0879H20.0234ZM25.2939 56.8037C28.8631 60.9619 33.7467 63.0117 39.8223 63.0117V61.0117C34.2441 61.0117 29.9481 59.1553 26.8115 55.501L25.2939 56.8037ZM39.8223 63.0117C44.9363 63.0117 49.2736 61.7645 52.7668 59.2051L51.5848 57.5918C48.5025 59.8501 44.6041 61.0117 39.8223 61.0117V63.0117ZM52.7682 59.2041C56.3035 56.6046 58.3865 53.1254 58.9771 48.8175L56.9956 48.5458C56.4794 52.3108 54.6886 55.3095 51.5834 57.5928L52.7682 59.2041ZM57.9863 47.6816H38.6016V49.6816H57.9863V47.6816ZM88.8945 75H87.8945V76H88.8945V75ZM88.8945 3.51562V2.51562H87.8945V3.51562H88.8945ZM132.693 3.51562H133.693V2.51562H132.693V3.51562ZM132.693 19.1895V20.1895H133.693V19.1895H132.693ZM107.889 19.1895V18.1895H106.889V19.1895H107.889ZM107.889 31.5918H106.889V32.5918H107.889V31.5918ZM131.277 31.5918H132.277V30.5918H131.277V31.5918ZM131.277 46.9238V47.9238H132.277V46.9238H131.277ZM107.889 46.9238V45.9238H106.889V46.9238H107.889ZM107.889 58.9844H106.889V59.9844H107.889V58.9844ZM132.693 58.9844H133.693V57.9844H132.693V58.9844ZM132.693 75V76H133.693V75H132.693ZM89.8945 75V3.51562H87.8945V75H89.8945ZM88.8945 4.51562H132.693V2.51562H88.8945V4.51562ZM131.693 3.51562V19.1895H133.693V3.51562H131.693ZM132.693 18.1895H107.889V20.1895H132.693V18.1895ZM106.889 19.1895V31.5918H108.889V19.1895H106.889ZM107.889 32.5918H131.277V30.5918H107.889V32.5918ZM130.277 31.5918V46.9238H132.277V31.5918H130.277ZM131.277 45.9238H107.889V47.9238H131.277V45.9238ZM106.889 46.9238V58.9844H108.889V46.9238H106.889ZM107.889 59.9844H132.693V57.9844H107.889V59.9844ZM131.693 58.9844V75H133.693V58.9844H131.693ZM132.693 74H88.8945V76H132.693V74ZM145.633 75H144.633V76H145.633V75ZM145.633 3.51562V2.51562H144.633V3.51562H145.633ZM164.432 3.51562L165.238 2.9237L164.938 2.51562H164.432V3.51562ZM191.434 40.2832L192.254 39.7121L192.247 39.7016L192.24 39.6913L191.434 40.2832ZM193.973 44.8242L193.083 45.2816L193.087 45.2892L193.091 45.2968L193.973 44.8242ZM197.928 52.8809L197.019 53.2975L198.919 52.7501L197.928 52.8809ZM197.049 44.9707L196.051 45.041L196.052 45.0549L197.049 44.9707ZM196.805 3.51562V2.51562H195.805V3.51562H196.805ZM215.506 3.51562H216.506V2.51562H215.506V3.51562ZM215.506 75V76H216.506V75H215.506ZM196.805 75L195.998 75.5904L196.297 76H196.805V75ZM169.803 38.0859L170.61 37.4955L170.607 37.4915L169.803 38.0859ZM167.166 33.5938L166.277 34.0511L166.281 34.0587L166.285 34.0663L167.166 33.5938ZM163.309 25.5859L164.218 25.1699L162.317 25.7153L163.309 25.5859ZM164.139 33.5449L163.141 33.6152L163.142 33.6291L164.139 33.5449ZM164.432 75V76H165.432V75H164.432ZM146.633 75V3.51562H144.633V75H146.633ZM145.633 4.51562H164.432V2.51562H145.633V4.51562ZM163.626 4.10755L190.628 40.8751L192.24 39.6913L165.238 2.9237L163.626 4.10755ZM190.613 40.8543C191.09 41.5402 191.908 42.9959 193.083 45.2816L194.862 44.3669C193.694 42.0953 192.819 40.5236 192.254 39.7121L190.613 40.8543ZM193.091 45.2968C194.283 47.5195 195.592 50.1854 197.019 53.2975L198.837 52.4642C197.399 49.3263 196.071 46.6211 194.854 44.3516L193.091 45.2968ZM198.919 52.7501C198.53 49.7992 198.239 47.1785 198.045 44.8865L196.052 45.0549C196.249 47.3853 196.544 50.038 196.936 53.0116L198.919 52.7501ZM198.046 44.9005C197.885 42.6063 197.805 40.5797 197.805 38.8184H195.805C195.805 40.6378 195.887 42.7128 196.051 45.041L198.046 44.9005ZM197.805 38.8184V3.51562H195.805V38.8184H197.805ZM196.805 4.51562H215.506V2.51562H196.805V4.51562ZM214.506 3.51562V75H216.506V3.51562H214.506ZM215.506 74H196.805V76H215.506V74ZM197.612 74.4096L170.61 37.4955L168.996 38.6763L195.998 75.5904L197.612 74.4096ZM170.607 37.4915C170.103 36.8093 169.255 35.3736 168.047 33.1212L166.285 34.0663C167.486 36.3061 168.396 37.8652 168.999 38.6803L170.607 37.4915ZM168.055 33.1364C166.892 30.8748 165.613 28.2199 164.218 25.1699L162.399 26.0019C163.803 29.0717 165.096 31.7554 166.277 34.0511L168.055 33.1364ZM162.317 25.7153C162.706 28.696 162.98 31.3286 163.141 33.6152L165.136 33.4747C164.972 31.1389 164.693 28.4655 164.3 25.4566L162.317 25.7153ZM163.142 33.6291C163.336 35.92 163.432 37.9418 163.432 39.6973H165.432C165.432 37.872 165.332 35.7922 165.135 33.4607L163.142 33.6291ZM163.432 39.6973V75H165.432V39.6973H163.432ZM164.432 74H145.633V76H164.432V74ZM293.191 65.918L293.886 66.6378L293.892 66.6315L293.191 65.918ZM280.691 74.0723L281.065 74.9999L281.071 74.9976L280.691 74.0723ZM251.395 74.0723L251.013 74.9967L251.021 74.9999L251.395 74.0723ZM239.09 65.918L239.794 65.2075L239.784 65.1982L239.09 65.918ZM230.691 53.8086L229.769 54.1937L229.771 54.1993L230.691 53.8086ZM230.691 25L229.771 24.6093L229.77 24.6125L230.691 25ZM239.09 12.8906L239.784 13.6104L239.794 13.601L239.09 12.8906ZM251.395 4.78516L251.77 5.71184L251.774 5.7105L251.395 4.78516ZM280.74 4.78516L280.361 5.71053L280.369 5.71363L280.74 4.78516ZM301.395 24.9512L300.472 25.3363L300.474 25.3419L301.395 24.9512ZM279.471 54.4434L278.725 53.7771L278.722 53.7805L279.471 54.4434ZM252.664 24.4141L251.916 23.7508L251.915 23.7512L252.664 24.4141ZM252.615 54.4922L251.866 55.1546L252.615 54.4922ZM303.275 39.4043C303.275 44.422 302.355 49.1072 300.521 53.47L302.365 54.2449C304.308 49.6233 305.275 44.6731 305.275 39.4043H303.275ZM300.521 53.47C298.687 57.8351 296.013 61.7455 292.491 65.2045L293.892 66.6315C297.596 62.9941 300.424 58.8642 302.365 54.2449L300.521 53.47ZM292.497 65.1981C288.943 68.6259 284.883 71.2743 280.312 73.1469L281.071 74.9976C285.875 73.0291 290.149 70.2413 293.886 66.6378L292.497 65.1981ZM280.318 73.1447C275.749 74.9849 271.009 75.9043 266.092 75.9043V77.9043C271.266 77.9043 276.259 76.9356 281.065 74.9999L280.318 73.1447ZM266.092 75.9043C261.108 75.9043 256.336 74.9843 251.768 73.1447L251.021 74.9999C255.829 76.9363 260.855 77.9043 266.092 77.9043V75.9043ZM251.776 73.1479C247.24 71.2765 243.249 68.6308 239.794 65.2076L238.386 66.6283C242.027 70.2364 246.239 73.0268 251.013 74.9967L251.776 73.1479ZM239.784 65.1982C236.199 61.7396 233.478 57.8139 231.612 53.4179L229.771 54.1993C231.746 58.8527 234.624 63 238.396 66.6377L239.784 65.1982ZM231.614 53.4235C229.779 49.0251 228.859 44.355 228.859 39.4043H226.859C226.859 44.6098 227.828 49.5426 229.769 54.1937L231.614 53.4235ZM228.859 39.4043C228.859 34.4201 229.779 29.751 231.613 25.3875L229.77 24.6125C227.827 29.2333 226.859 34.1672 226.859 39.4043H228.859ZM231.612 25.3907C233.478 20.9947 236.199 17.069 239.784 13.6104L238.396 12.1709C234.624 15.8086 231.746 19.9559 229.771 24.6093L231.612 25.3907ZM239.794 13.601C243.247 10.179 247.237 7.55044 251.77 5.71183L251.019 3.85848C246.242 5.79592 242.029 8.57101 238.386 12.1803L239.794 13.601ZM251.774 5.7105C256.34 3.83967 261.11 2.9043 266.092 2.9043V0.904297C260.852 0.904297 255.824 1.8895 251.015 3.85981L251.774 5.7105ZM266.092 2.9043C271.04 2.9043 275.794 3.83935 280.361 5.7105L281.119 3.85981C276.311 1.88982 271.3 0.904297 266.092 0.904297V2.9043ZM280.369 5.71363C284.968 7.55316 289.006 10.1825 292.491 13.6042L293.892 12.1771C290.216 8.56749 285.953 5.79319 281.112 3.85668L280.369 5.71363ZM292.491 13.6042C295.979 17.0285 298.636 20.9377 300.472 25.3363L302.317 24.5661C300.377 19.9152 297.566 15.784 293.892 12.1771L292.491 13.6042ZM300.474 25.3419C302.34 29.7381 303.275 34.4224 303.275 39.4043H305.275C305.275 34.1648 304.29 29.2137 302.315 24.5605L300.474 25.3419ZM266.092 61.4004C271.776 61.4004 276.51 59.2965 280.219 55.1062L278.722 53.7805C275.4 57.5329 271.215 59.4004 266.092 59.4004V61.4004ZM280.216 55.1096C283.951 50.9298 285.793 45.6688 285.793 39.4043H283.793C283.793 45.2492 282.087 50.0142 278.725 53.7771L280.216 55.1096ZM285.793 39.4043C285.793 33.1992 283.931 27.9562 280.167 23.7474L278.676 25.0807C282.074 28.8798 283.793 33.6302 283.793 39.4043H285.793ZM280.167 23.7474C276.4 19.5344 271.686 17.4082 266.092 17.4082V19.4082C271.109 19.4082 275.283 21.2859 278.676 25.0807L280.167 23.7474ZM266.092 17.4082C260.405 17.4082 255.656 19.5303 251.916 23.7508L253.412 25.0773C256.769 21.29 260.971 19.4082 266.092 19.4082V17.4082ZM251.915 23.7512C248.216 27.9303 246.391 33.1733 246.391 39.4043H248.391C248.391 33.591 250.081 28.8406 253.413 25.0769L251.915 23.7512ZM246.391 39.4043C246.391 45.7257 248.195 51.0036 251.866 55.1546L253.364 53.8297C250.069 50.1032 248.391 45.3225 248.391 39.4043H246.391ZM251.866 55.1546C255.549 59.3191 260.319 61.4004 266.092 61.4004V59.4004C260.862 59.4004 256.648 57.5429 253.364 53.8297L251.866 55.1546ZM335.232 75L334.31 75.3868L334.567 76H335.232V75ZM305.252 3.51562V2.51562H303.748L304.33 3.90239L305.252 3.51562ZM325.955 3.51562L326.897 3.17878L326.659 2.51562H325.955V3.51562ZM340.262 43.5059L341.217 43.2118L341.211 43.1902L341.203 43.169L340.262 43.5059ZM341.043 46.582L340.071 46.8154L340.073 46.827L340.076 46.8385L341.043 46.582ZM342.654 53.0762L341.681 53.3078L343.627 53.3084L342.654 53.0762ZM345.145 43.5059L344.202 43.1711L344.199 43.1803L344.196 43.1896L345.145 43.5059ZM359.354 3.51562V2.51562H358.648L358.411 3.18082L359.354 3.51562ZM380.057 3.51562L380.979 3.90239L381.56 2.51562H380.057V3.51562ZM350.076 75V76H350.741L350.998 75.3868L350.076 75ZM336.155 74.6132L306.174 3.12886L304.33 3.90239L334.31 75.3868L336.155 74.6132ZM305.252 4.51562H325.955V2.51562H305.252V4.51562ZM325.014 3.85247L339.32 43.8427L341.203 43.169L326.897 3.17878L325.014 3.85247ZM339.306 43.7999C339.425 44.1865 339.677 45.1775 340.071 46.8154L342.015 46.3487C341.627 44.7313 341.359 43.6716 341.217 43.2118L339.306 43.7999ZM340.076 46.8385C340.496 48.4215 341.031 50.5768 341.681 53.3078L343.627 52.8446C342.975 50.1068 342.436 47.9326 342.01 46.3256L340.076 46.8385ZM343.627 53.3084C344.147 51.1323 344.633 49.1693 345.087 47.4189L343.151 46.917C342.693 48.6823 342.204 50.658 341.682 52.8439L343.627 53.3084ZM345.087 47.4189C345.543 45.66 345.877 44.4696 346.093 43.8221L344.196 43.1896C343.956 43.9093 343.607 45.1603 343.151 46.917L345.087 47.4189ZM346.087 43.8407L360.296 3.85043L358.411 3.18082L344.202 43.1711L346.087 43.8407ZM359.354 4.51562H380.057V2.51562H359.354V4.51562ZM379.134 3.12886L349.154 74.6132L350.998 75.3868L380.979 3.90239L379.134 3.12886ZM350.076 74H335.232V76H350.076V74ZM403.006 48.291L402.049 47.9999L401.656 49.291H403.006V48.291ZM422.391 48.291V49.291H423.746L423.346 47.9962L422.391 48.291ZM415.115 24.707L416.071 24.4122L416.068 24.4038L415.115 24.707ZM412.674 15.0879L413.645 14.8483L411.702 14.8538L412.674 15.0879ZM411.404 20.1172L410.438 19.8608L410.435 19.87L410.433 19.8793L411.404 20.1172ZM410.184 24.707L411.14 24.9982L411.142 24.9914L411.144 24.9846L410.184 24.707ZM375.711 75L374.766 74.6739L374.308 76H375.711V75ZM400.369 3.51562V2.51562H399.656L399.424 3.18953L400.369 3.51562ZM424.783 3.51562L425.728 3.18896L425.496 2.51562H424.783V3.51562ZM449.49 75V76H450.894L450.435 74.6733L449.49 75ZM430.105 75L429.143 75.2718L429.349 76H430.105V75ZM426.492 62.207L427.455 61.9352L427.249 61.207H426.492V62.207ZM398.807 62.207V61.207H398.055L397.846 61.9284L398.807 62.207ZM395.096 75V76H395.847L396.056 75.2786L395.096 75ZM403.006 49.291H422.391V47.291H403.006V49.291ZM423.346 47.9962L416.071 24.4123L414.16 25.0018L421.435 48.5858L423.346 47.9962ZM416.068 24.4038C415.851 23.7223 415.549 22.5949 415.159 21.0024L413.216 21.4781C413.607 23.0757 413.923 24.2595 414.162 25.0102L416.068 24.4038ZM415.159 21.0024C414.768 19.4065 414.263 17.3551 413.645 14.8483L411.703 15.3275C412.321 17.8337 412.826 19.8838 413.216 21.4781L415.159 21.0024ZM411.702 14.8538C411.28 16.6049 410.859 18.2738 410.438 19.8608L412.371 20.3736C412.796 18.7705 413.221 17.0865 413.646 15.3219L411.702 14.8538ZM410.433 19.8793C410.045 21.4621 409.642 22.9788 409.223 24.4295L411.144 24.9846C411.572 23.5056 411.982 21.9624 412.376 20.3551L410.433 19.8793ZM409.227 24.4159L402.049 47.9999L403.963 48.5822L411.14 24.9982L409.227 24.4159ZM376.656 75.3261L401.314 3.84172L399.424 3.18953L374.766 74.6739L376.656 75.3261ZM400.369 4.51562H424.783V2.51562H400.369V4.51562ZM423.838 3.84229L448.545 75.3267L450.435 74.6733L425.728 3.18896L423.838 3.84229ZM449.49 74H430.105V76H449.49V74ZM431.068 74.7282L427.455 61.9352L425.53 62.4788L429.143 75.2718L431.068 74.7282ZM426.492 61.207H398.807V63.207H426.492V61.207ZM397.846 61.9284L394.135 74.7214L396.056 75.2786L399.767 62.4856L397.846 61.9284ZM395.096 74H375.711V76H395.096V74Z" fill="white"></path> </svg> 