<?xml version="1.0" encoding="UTF-8"?> <svg xmlns="http://www.w3.org/2000/svg" width="213" height="213" viewBox="0 0 213 213" fill="none"> <path d="M93.7354 141.016L91.3281 139.225L91.3223 139.233L93.7354 141.016ZM48.1396 140.847L45.7155 142.615L45.7204 142.621L45.7254 142.628L48.1396 140.847ZM48.1396 78.2935L45.7254 76.5126L45.7197 76.5204L48.1396 78.2935ZM93.8477 78.3496L91.4065 80.0933L91.4113 80.1002L91.4163 80.107L93.8477 78.3496ZM63.02 129.224L60.2311 130.329L60.2372 130.344L60.2434 130.36L63.02 129.224ZM78.7988 129.167L76.0186 128.04L76.0142 128.051L76.0099 128.062L78.7988 129.167ZM78.7988 89.917L76.0066 91.014L76.0108 91.0247L76.0151 91.0354L78.7988 89.917ZM63.02 89.8047L65.8019 90.9277L65.8055 90.9189L63.02 89.8047ZM99.0459 110.3C99.0459 122.936 96.3558 132.465 91.3281 139.225L96.1426 142.806C102.196 134.667 105.046 123.719 105.046 110.3H99.0459ZM91.3223 139.233C86.4129 145.879 79.7478 149.19 70.9937 149.19V155.19C81.5559 155.19 90.052 151.051 96.1484 142.798L91.3223 139.233ZM70.9937 149.19C62.2568 149.19 55.5479 145.837 50.5539 139.066L45.7254 142.628C51.887 150.981 60.4141 155.19 70.9937 155.19V149.19ZM50.5638 139.08C45.5239 132.167 42.8291 122.423 42.8291 109.514H36.8291C36.8291 123.184 39.6747 134.329 45.7155 142.615L50.5638 139.08ZM42.8291 109.514C42.8291 96.6441 45.5234 86.9402 50.5596 80.0665L45.7197 76.5204C39.6751 84.7704 36.8291 95.8803 36.8291 109.514H42.8291ZM50.5539 80.0743C55.5479 73.304 62.2568 69.9507 70.9937 69.9507V63.9507C60.4141 63.9507 51.887 68.1593 45.7254 76.5126L50.5539 80.0743ZM70.9937 69.9507C79.8902 69.9507 86.5741 73.328 91.4065 80.0933L96.2889 76.6059C90.2651 68.1726 81.713 63.9507 70.9937 63.9507V69.9507ZM91.4163 80.107C96.3746 86.9672 99.0459 96.9085 99.0459 110.3H105.046C105.046 96.2149 102.252 84.8557 96.2791 76.5923L91.4163 80.107ZM57.5493 109.514C57.5493 118.573 58.3646 125.62 60.2311 130.329L65.8089 128.118C64.3811 124.516 63.5493 118.424 63.5493 109.514H57.5493ZM60.2434 130.36C61.2225 132.753 62.5811 134.788 64.4397 136.228C66.3375 137.698 68.5696 138.4 70.9937 138.4V132.4C69.7865 132.4 68.874 132.073 68.114 131.485C67.3147 130.865 66.5021 129.812 65.7967 128.088L60.2434 130.36ZM70.9937 138.4C73.4024 138.4 75.6142 137.68 77.4842 136.186C79.3097 134.729 80.6352 132.676 81.5877 130.273L76.0099 128.062C75.3154 129.814 74.5163 130.878 73.7402 131.498C73.0085 132.082 72.1412 132.4 70.9937 132.4V138.4ZM81.579 130.295C83.4913 125.578 84.3257 118.54 84.3257 109.514H78.3257C78.3257 118.382 77.4755 124.447 76.0186 128.04L81.579 130.295ZM84.3257 109.514C84.3257 100.556 83.4898 93.5455 81.5825 88.7985L76.0151 91.0354C77.477 94.6739 78.3257 100.728 78.3257 109.514H84.3257ZM81.5911 88.82C80.6408 86.4011 79.3183 84.3337 77.4945 82.8642C75.6246 81.3575 73.4092 80.6279 70.9937 80.6279V86.6279C72.1344 86.6279 72.9981 86.9465 73.7299 87.5362C74.5078 88.163 75.3097 89.2402 76.0066 91.014L81.5911 88.82ZM70.9937 80.6279C68.5586 80.6279 66.3151 81.3259 64.4116 82.8005C62.5461 84.2456 61.1951 86.2894 60.2346 88.6905L65.8055 90.9189C66.4921 89.2022 67.2936 88.1576 68.086 87.5438C68.8404 86.9594 69.7601 86.6279 70.9937 86.6279V80.6279ZM60.2381 88.6817C58.3623 93.3286 57.5493 100.391 57.5493 109.514H63.5493C63.5493 100.519 64.3835 94.4416 65.8019 90.9277L60.2381 88.6817ZM171.843 150V153H174.843V150H171.843ZM109.065 150L106.773 148.064L102.605 153H109.065V150ZM145.957 106.313L143.666 104.377L143.665 104.378L145.957 106.313ZM150.898 99.126L148.215 97.7843L148.21 97.7938L148.206 97.8033L150.898 99.126ZM149.775 86.0425L147.632 88.1418L147.654 88.1639L147.676 88.1856L149.775 86.0425ZM134.502 86.6602L132.216 84.7172L132.207 84.7284L132.197 84.7396L134.502 86.6602ZM131.694 97.4414V100.441H134.694V97.4414H131.694ZM111.929 97.4414H108.929V100.441H111.929V97.4414ZM120.071 74.8682L117.972 72.7249L117.964 72.7322L120.071 74.8682ZM170.046 104.236L172.757 105.521L172.762 105.511L170.046 104.236ZM161.511 116.196L159.297 114.173L159.289 114.181L161.511 116.196ZM146.687 132.537L144.465 130.521L139.915 135.537H146.687V132.537ZM171.843 132.537H174.843V129.537H171.843V132.537ZM171.843 147H109.065V153H171.843V147ZM111.357 151.936L148.249 108.249L143.665 104.378L106.773 148.064L111.357 151.936ZM148.248 108.25C150.587 105.483 152.397 102.879 153.591 100.449L148.206 97.8033C147.303 99.6409 145.819 101.829 143.666 104.377L148.248 108.25ZM153.582 100.468C154.816 97.9992 155.527 95.5163 155.527 93.0615H149.527C149.527 94.3503 149.152 95.9103 148.215 97.7843L153.582 100.468ZM155.527 93.0615C155.527 89.481 154.358 86.3321 151.875 83.8994L147.676 88.1856C148.861 89.3466 149.527 90.8771 149.527 93.0615H155.527ZM151.918 83.9431C149.471 81.4442 146.275 80.291 142.644 80.291V86.291C144.928 86.291 146.486 86.9721 147.632 88.1418L151.918 83.9431ZM142.644 80.291C138.433 80.291 134.807 81.6696 132.216 84.7172L136.788 88.6031C138.016 87.1586 139.818 86.291 142.644 86.291V80.291ZM132.197 84.7396C129.71 87.7249 128.694 91.7752 128.694 96.4307H134.694C134.694 92.5509 135.551 90.0876 136.807 88.5807L132.197 84.7396ZM128.694 96.4307V97.4414H134.694V96.4307H128.694ZM131.694 94.4414H111.929V100.441H131.694V94.4414ZM114.929 97.4414V96.8799H108.929V97.4414H114.929ZM114.929 96.8799C114.929 88.1708 117.444 81.6725 122.177 77.0042L117.964 72.7322C111.842 78.7702 108.929 86.9464 108.929 96.8799H114.929ZM122.17 77.0114C126.95 72.3293 133.577 69.8384 142.419 69.8384V63.8384C132.394 63.8384 124.122 66.7006 117.972 72.7249L122.17 77.0114ZM142.419 69.8384C151.107 69.8384 157.678 72.0716 162.462 76.2332L166.4 71.7062C160.253 66.3594 152.15 63.8384 142.419 63.8384V69.8384ZM162.462 76.2332C167.209 80.3621 169.629 85.8302 169.629 92.9492H175.629C175.629 84.2708 172.584 77.0858 166.4 71.7062L162.462 76.2332ZM169.629 92.9492C169.629 96.3419 168.875 99.6705 167.331 102.961L172.762 105.511C174.662 101.464 175.629 97.2681 175.629 92.9492H169.629ZM167.336 102.95C165.786 106.219 163.148 109.958 159.297 114.173L163.726 118.22C167.811 113.75 170.863 109.515 172.757 105.521L167.336 102.95ZM159.289 114.181L144.465 130.521L148.909 134.552L163.733 118.212L159.289 114.181ZM146.687 135.537H171.843V129.537H146.687V135.537ZM168.843 132.537V150H174.843V132.537H168.843Z" fill="white"></path> <rect x="1.5" y="1.5" width="210" height="210" stroke="#B61C18" stroke-width="3"></rect> </svg> 