<?xml version="1.0" encoding="UTF-8"?> <svg xmlns="http://www.w3.org/2000/svg" width="213" height="213" viewBox="0 0 213 213" fill="none"> <path d="M93.7354 141.016L91.3281 139.225L91.3223 139.233L93.7354 141.016ZM48.1396 140.847L45.7155 142.615L45.7204 142.621L45.7254 142.628L48.1396 140.847ZM48.1396 78.2935L45.7254 76.5126L45.7197 76.5204L48.1396 78.2935ZM93.8477 78.3496L91.4065 80.0933L91.4113 80.1002L91.4163 80.107L93.8477 78.3496ZM63.02 129.224L60.2311 130.329L60.2372 130.344L60.2434 130.36L63.02 129.224ZM78.7988 129.167L76.0186 128.04L76.0142 128.051L76.0099 128.062L78.7988 129.167ZM78.7988 89.917L76.0066 91.014L76.0108 91.0247L76.0151 91.0354L78.7988 89.917ZM63.02 89.8047L65.8019 90.9277L65.8055 90.9189L63.02 89.8047ZM99.0459 110.3C99.0459 122.936 96.3558 132.465 91.3281 139.225L96.1426 142.806C102.196 134.667 105.046 123.719 105.046 110.3H99.0459ZM91.3223 139.233C86.4129 145.879 79.7478 149.19 70.9937 149.19V155.19C81.5559 155.19 90.052 151.051 96.1484 142.798L91.3223 139.233ZM70.9937 149.19C62.2568 149.19 55.5479 145.837 50.5539 139.066L45.7254 142.628C51.887 150.981 60.4141 155.19 70.9937 155.19V149.19ZM50.5638 139.08C45.5239 132.167 42.8291 122.423 42.8291 109.514H36.8291C36.8291 123.184 39.6747 134.329 45.7155 142.615L50.5638 139.08ZM42.8291 109.514C42.8291 96.6441 45.5234 86.9402 50.5596 80.0665L45.7197 76.5204C39.6751 84.7704 36.8291 95.8803 36.8291 109.514H42.8291ZM50.5539 80.0743C55.5479 73.304 62.2568 69.9507 70.9937 69.9507V63.9507C60.4141 63.9507 51.887 68.1593 45.7254 76.5126L50.5539 80.0743ZM70.9937 69.9507C79.8902 69.9507 86.5741 73.328 91.4065 80.0933L96.2889 76.6059C90.2651 68.1726 81.713 63.9507 70.9937 63.9507V69.9507ZM91.4163 80.107C96.3746 86.9672 99.0459 96.9085 99.0459 110.3H105.046C105.046 96.2149 102.252 84.8557 96.2791 76.5923L91.4163 80.107ZM57.5493 109.514C57.5493 118.573 58.3646 125.62 60.2311 130.329L65.8089 128.118C64.3811 124.516 63.5493 118.424 63.5493 109.514H57.5493ZM60.2434 130.36C61.2225 132.753 62.5811 134.788 64.4397 136.228C66.3375 137.698 68.5696 138.4 70.9937 138.4V132.4C69.7865 132.4 68.874 132.073 68.114 131.485C67.3147 130.865 66.5021 129.812 65.7967 128.088L60.2434 130.36ZM70.9937 138.4C73.4024 138.4 75.6142 137.68 77.4842 136.186C79.3097 134.729 80.6352 132.676 81.5877 130.273L76.0099 128.062C75.3154 129.814 74.5163 130.878 73.7402 131.498C73.0085 132.082 72.1412 132.4 70.9937 132.4V138.4ZM81.579 130.295C83.4913 125.578 84.3257 118.54 84.3257 109.514H78.3257C78.3257 118.382 77.4755 124.447 76.0186 128.04L81.579 130.295ZM84.3257 109.514C84.3257 100.556 83.4898 93.5455 81.5825 88.7985L76.0151 91.0354C77.477 94.6739 78.3257 100.728 78.3257 109.514H84.3257ZM81.5911 88.82C80.6408 86.4011 79.3183 84.3337 77.4945 82.8642C75.6246 81.3575 73.4092 80.6279 70.9937 80.6279V86.6279C72.1344 86.6279 72.9981 86.9465 73.7299 87.5362C74.5078 88.163 75.3097 89.2402 76.0066 91.014L81.5911 88.82ZM70.9937 80.6279C68.5586 80.6279 66.3151 81.3259 64.4116 82.8005C62.5461 84.2456 61.1951 86.2894 60.2346 88.6905L65.8055 90.9189C66.4921 89.2022 67.2936 88.1576 68.086 87.5438C68.8404 86.9594 69.7601 86.6279 70.9937 86.6279V80.6279ZM60.2381 88.6817C58.3623 93.3286 57.5493 100.391 57.5493 109.514H63.5493C63.5493 100.519 64.3835 94.4416 65.8019 90.9277L60.2381 88.6817ZM133.772 114.119L131.633 112.015L131.633 112.015L133.772 114.119ZM133.772 132.48L131.633 134.584L131.642 134.593L131.651 134.602L133.772 132.48ZM151.909 132.48L149.788 130.359L149.779 130.368L149.77 130.377L151.909 132.48ZM151.909 114.119L149.753 116.204L149.77 116.222L149.788 116.24L151.909 114.119ZM141.858 97.5537L139.357 95.8963L134.679 102.955L142.757 100.416L141.858 97.5537ZM145.957 96.6553L146.348 99.6296L146.387 99.6246L146.425 99.6186L145.957 96.6553ZM167.744 103.674L165.549 105.719L165.557 105.727L167.744 103.674ZM166.003 144.048L168.074 146.219L168.075 146.218L166.003 144.048ZM114.736 107.942L111.938 106.861L111.934 106.87L111.931 106.879L114.736 107.942ZM126.641 86.3794L124.121 84.7503L124.117 84.7573L124.113 84.7642L126.641 86.3794ZM138.152 68.5791V65.5791H136.519L135.633 66.95L138.152 68.5791ZM161.062 68.5791L163.563 70.2365L166.65 65.5791H161.062V68.5791ZM142.869 107.693C138.412 107.693 134.55 109.05 131.633 112.015L135.911 116.222C137.486 114.621 139.688 113.693 142.869 113.693V107.693ZM131.633 112.015C128.749 114.948 127.459 118.844 127.459 123.328H133.459C133.459 120.025 134.378 117.781 135.911 116.222L131.633 112.015ZM127.459 123.328C127.459 127.783 128.754 131.656 131.633 134.584L135.911 130.377C134.373 128.813 133.459 126.584 133.459 123.328H127.459ZM131.651 134.602C134.57 137.521 138.427 138.85 142.869 138.85V132.85C139.674 132.85 137.466 131.932 135.893 130.359L131.651 134.602ZM142.869 138.85C147.309 138.85 151.159 137.522 154.048 134.584L149.77 130.377C148.242 131.931 146.065 132.85 142.869 132.85V138.85ZM154.031 134.602C156.956 131.677 158.278 127.798 158.278 123.328H152.278C152.278 126.569 151.355 128.792 149.788 130.359L154.031 134.602ZM158.278 123.328C158.278 118.83 156.961 114.928 154.031 111.997L149.788 116.24C151.349 117.802 152.278 120.039 152.278 123.328H158.278ZM154.066 112.033C151.18 109.049 147.323 107.693 142.869 107.693V113.693C146.051 113.693 148.221 114.621 149.753 116.204L154.066 112.033ZM142.757 100.416C143.895 100.058 145.091 99.7951 146.348 99.6296L145.566 93.6809C143.978 93.8897 142.442 94.2256 140.958 94.6917L142.757 100.416ZM146.425 99.6186C147.679 99.4205 149.02 99.3184 150.449 99.3184V93.3184C148.734 93.3184 147.08 93.4408 145.489 93.692L146.425 99.6186ZM150.449 99.3184C156.616 99.3184 161.574 101.451 165.549 105.719L169.94 101.63C164.78 96.0901 158.208 93.3184 150.449 93.3184V99.3184ZM165.557 105.727C169.534 109.966 171.595 115.394 171.595 122.261H177.595C177.595 114.079 175.088 107.116 169.932 101.621L165.557 105.727ZM171.595 122.261C171.595 130.629 168.979 137.062 163.932 141.877L168.075 146.218C174.483 140.103 177.595 132.011 177.595 122.261H171.595ZM163.933 141.877C158.917 146.661 152.084 149.19 143.093 149.19V155.19C153.269 155.19 161.709 152.29 168.074 146.219L163.933 141.877ZM143.093 149.19C134.137 149.19 127.365 146.678 122.429 141.94L118.274 146.268C124.569 152.311 132.958 155.19 143.093 155.19V149.19ZM122.429 141.94C117.503 137.211 114.929 130.802 114.929 122.373H108.929C108.929 132.137 111.97 140.216 118.274 146.268L122.429 141.94ZM114.929 122.373C114.929 118.101 115.782 113.65 117.542 109.005L111.931 106.879C109.947 112.117 108.929 117.287 108.929 122.373H114.929ZM117.535 109.023C119.329 104.379 123.158 97.4027 129.169 87.9946L124.113 84.7642C118.069 94.2233 113.962 101.622 111.938 106.861L117.535 109.023ZM129.16 88.0085L140.671 70.2082L135.633 66.95L124.121 84.7503L129.16 88.0085ZM138.152 71.5791H161.062V65.5791H138.152V71.5791ZM158.561 66.9217L139.357 95.8963L144.359 99.2111L163.563 70.2365L158.561 66.9217Z" fill="white"></path> <rect x="1.5" y="1.5" width="210" height="210" stroke="#B61C18" stroke-width="3"></rect> </svg> 