<?xml version="1.0" encoding="UTF-8"?> <svg xmlns="http://www.w3.org/2000/svg" width="779" height="778" viewBox="0 0 779 778" fill="none"> <path d="M389.5 0C175.241 0 0.5 174.741 0.5 389C0.5 603.259 175.241 778 389.5 778C603.759 778 778.5 603.259 778.5 389C778.5 174.741 603.759 0 389.5 0ZM389.5 728.603C202.41 728.603 49.8968 576.09 49.8968 389C49.8968 201.91 202.41 49.3968 389.5 49.3968C576.59 49.3968 729.103 201.91 729.103 389C729.103 576.09 576.59 728.603 389.5 728.603Z" fill="#272727"></path> <path d="M414.198 330.341H364.801V577.325H414.198V330.341Z" fill="#272727"></path> <path d="M414.198 213.024H364.801V262.421H414.198V213.024Z" fill="#272727"></path> </svg> 