<?xml version="1.0" encoding="UTF-8"?> <svg xmlns="http://www.w3.org/2000/svg" width="213" height="213" viewBox="0 0 213 213" fill="none"> <path d="M93.7354 141.016L91.3281 139.225L91.3223 139.233L93.7354 141.016ZM48.1396 140.847L45.7155 142.615L45.7204 142.621L45.7254 142.628L48.1396 140.847ZM48.1396 78.2935L45.7254 76.5126L45.7197 76.5204L48.1396 78.2935ZM93.8477 78.3496L91.4065 80.0933L91.4113 80.1002L91.4163 80.107L93.8477 78.3496ZM63.02 129.224L60.2311 130.329L60.2372 130.344L60.2434 130.36L63.02 129.224ZM78.7988 129.167L76.0186 128.04L76.0142 128.051L76.0099 128.062L78.7988 129.167ZM78.7988 89.917L76.0066 91.014L76.0108 91.0247L76.0151 91.0354L78.7988 89.917ZM63.02 89.8047L65.8019 90.9277L65.8055 90.9189L63.02 89.8047ZM99.0459 110.3C99.0459 122.936 96.3558 132.465 91.3281 139.225L96.1426 142.806C102.196 134.667 105.046 123.719 105.046 110.3H99.0459ZM91.3223 139.233C86.4129 145.879 79.7478 149.19 70.9937 149.19V155.19C81.5559 155.19 90.052 151.051 96.1484 142.798L91.3223 139.233ZM70.9937 149.19C62.2568 149.19 55.5479 145.837 50.5539 139.066L45.7254 142.628C51.887 150.981 60.4141 155.19 70.9937 155.19V149.19ZM50.5638 139.08C45.5239 132.167 42.8291 122.423 42.8291 109.514H36.8291C36.8291 123.184 39.6747 134.329 45.7155 142.615L50.5638 139.08ZM42.8291 109.514C42.8291 96.6441 45.5234 86.9402 50.5596 80.0665L45.7197 76.5204C39.6751 84.7704 36.8291 95.8803 36.8291 109.514H42.8291ZM50.5539 80.0743C55.5479 73.304 62.2568 69.9507 70.9937 69.9507V63.9507C60.4141 63.9507 51.887 68.1593 45.7254 76.5126L50.5539 80.0743ZM70.9937 69.9507C79.8902 69.9507 86.5741 73.328 91.4065 80.0933L96.2889 76.6059C90.2651 68.1726 81.713 63.9507 70.9937 63.9507V69.9507ZM91.4163 80.107C96.3746 86.9672 99.0459 96.9085 99.0459 110.3H105.046C105.046 96.2149 102.252 84.8557 96.2791 76.5923L91.4163 80.107ZM57.5493 109.514C57.5493 118.573 58.3646 125.62 60.2311 130.329L65.8089 128.118C64.3811 124.516 63.5493 118.424 63.5493 109.514H57.5493ZM60.2434 130.36C61.2225 132.753 62.5811 134.788 64.4397 136.228C66.3375 137.698 68.5696 138.4 70.9937 138.4V132.4C69.7865 132.4 68.874 132.073 68.114 131.485C67.3147 130.865 66.5021 129.812 65.7967 128.088L60.2434 130.36ZM70.9937 138.4C73.4024 138.4 75.6142 137.68 77.4842 136.186C79.3097 134.729 80.6352 132.676 81.5877 130.273L76.0099 128.062C75.3154 129.814 74.5163 130.878 73.7402 131.498C73.0085 132.082 72.1412 132.4 70.9937 132.4V138.4ZM81.579 130.295C83.4913 125.578 84.3257 118.54 84.3257 109.514H78.3257C78.3257 118.382 77.4755 124.447 76.0186 128.04L81.579 130.295ZM84.3257 109.514C84.3257 100.556 83.4898 93.5455 81.5825 88.7985L76.0151 91.0354C77.477 94.6739 78.3257 100.728 78.3257 109.514H84.3257ZM81.5911 88.82C80.6408 86.4011 79.3183 84.3337 77.4945 82.8642C75.6246 81.3575 73.4092 80.6279 70.9937 80.6279V86.6279C72.1344 86.6279 72.9981 86.9465 73.7299 87.5362C74.5078 88.163 75.3097 89.2402 76.0066 91.014L81.5911 88.82ZM70.9937 80.6279C68.5586 80.6279 66.3151 81.3259 64.4116 82.8005C62.5461 84.2456 61.1951 86.2894 60.2346 88.6905L65.8055 90.9189C66.4921 89.2022 67.2936 88.1576 68.086 87.5438C68.8404 86.9594 69.7601 86.6279 70.9937 86.6279V80.6279ZM60.2381 88.6817C58.3623 93.3286 57.5493 100.391 57.5493 109.514H63.5493C63.5493 100.519 64.3835 94.4416 65.8019 90.9277L60.2381 88.6817ZM168.306 68.5791H171.306V65.5791H168.306V68.5791ZM168.306 85.3687V88.3687H171.306V85.3687H168.306ZM137.141 85.3687V82.3687H134.568L134.176 84.9113L137.141 85.3687ZM135.513 95.9253L132.548 95.4679L131.879 99.8061L136.163 98.8539L135.513 95.9253ZM140.566 95.083L140.242 92.1006L140.235 92.1014L140.566 95.083ZM165.386 102.327L163.224 104.407L163.232 104.415L165.386 102.327ZM163.589 144.272L161.612 142.016L161.605 142.022L163.589 144.272ZM125.012 150.505L124.255 153.408L125.012 150.505ZM113.669 145.62L110.677 145.4L110.548 147.162L112.025 148.13L113.669 145.62ZM115.129 125.742L115.699 122.797L112.385 122.155L112.137 125.522L115.129 125.742ZM116.87 126.079L119.366 124.415L118.671 123.372L117.44 123.134L116.87 126.079ZM124.956 133.267L123.567 135.926L123.579 135.932L123.591 135.938L124.956 133.267ZM147.922 132.144L149.889 134.409L149.898 134.401L149.906 134.394L147.922 132.144ZM126.697 108.447L127.831 111.225L127.848 111.218L127.864 111.211L126.697 108.447ZM119.509 113.445L117.981 116.027L120.038 117.244L121.684 115.511L119.509 113.445ZM116.758 111.816L113.794 111.351L113.478 113.361L115.23 114.398L116.758 111.816ZM123.552 68.5791V65.5791H120.987L120.589 68.1134L123.552 68.5791ZM165.306 68.5791V85.3687H171.306V68.5791H165.306ZM168.306 82.3687H137.141V88.3687H168.306V82.3687ZM134.176 84.9113L132.548 95.4679L138.478 96.3826L140.106 85.826L134.176 84.9113ZM136.163 98.8539C137.744 98.5025 139.322 98.2397 140.898 98.0647L140.235 92.1014C138.441 92.3007 136.65 92.5994 134.862 92.9967L136.163 98.8539ZM140.891 98.0654C142.51 97.8894 144.087 97.8022 145.62 97.8022V91.8022C143.859 91.8022 142.066 91.9023 140.242 92.1006L140.891 98.0654ZM145.62 97.8022C153.327 97.8022 159.072 100.093 163.224 104.407L167.547 100.246C162.042 94.5273 154.609 91.8022 145.62 91.8022V97.8022ZM163.232 104.415C167.397 108.709 169.629 114.667 169.629 122.654H175.629C175.629 113.496 173.033 105.902 167.539 100.238L163.232 104.415ZM169.629 122.654C169.629 131.058 166.894 137.39 161.612 142.016L165.565 146.529C172.338 140.598 175.629 132.518 175.629 122.654H169.629ZM161.605 142.022C156.315 146.684 148.882 149.19 138.938 149.19V155.19C149.883 155.19 158.884 152.417 165.572 146.523L161.605 142.022ZM138.938 149.19C134.185 149.19 129.8 148.654 125.769 147.603L124.255 153.408C128.835 154.603 133.734 155.19 138.938 155.19V149.19ZM125.769 147.603C121.735 146.55 118.262 145.043 115.314 143.111L112.025 148.13C115.59 150.465 119.679 152.215 124.255 153.408L125.769 147.603ZM116.661 145.84L118.121 125.962L112.137 125.522L110.677 145.4L116.661 145.84ZM114.559 128.688L116.3 129.024L117.44 123.134L115.699 122.797L114.559 128.688ZM114.374 127.743C116.687 131.213 119.771 133.943 123.567 135.926L126.345 130.607C123.403 129.071 121.096 127.009 119.366 124.415L114.374 127.743ZM123.591 135.938C127.395 137.882 131.496 138.85 135.85 138.85V132.85C132.417 132.85 129.255 132.095 126.321 130.595L123.591 135.938ZM135.85 138.85C141.501 138.85 146.322 137.507 149.889 134.409L145.955 129.878C143.833 131.722 140.605 132.85 135.85 132.85V138.85ZM149.906 134.394C153.523 131.205 155.19 126.795 155.19 121.587H149.19C149.19 125.438 148.012 128.065 145.938 129.893L149.906 134.394ZM155.19 121.587C155.19 116.444 153.33 112.061 149.595 108.691L145.576 113.145C147.98 115.315 149.19 118.045 149.19 121.587H155.19ZM149.595 108.691C145.875 105.333 141.125 103.763 135.625 103.763V109.763C139.933 109.763 143.157 110.962 145.576 113.145L149.595 108.691ZM135.625 103.763C131.986 103.763 128.605 104.384 125.529 105.684L127.864 111.211C130.104 110.264 132.675 109.763 135.625 109.763V103.763ZM125.562 105.67C122.481 106.929 119.737 108.849 117.334 111.379L121.684 115.511C123.549 113.548 125.597 112.137 127.831 111.225L125.562 105.67ZM121.037 110.863L118.286 109.235L115.23 114.398L117.981 116.027L121.037 110.863ZM119.721 112.282L126.516 69.0448L120.589 68.1134L113.794 111.351L119.721 112.282ZM123.552 71.5791H168.306V65.5791H123.552V71.5791Z" fill="white"></path> <rect x="1.5" y="1.5" width="210" height="210" stroke="#B61C18" stroke-width="3"></rect> </svg> 