<?xml version="1.0" encoding="UTF-8"?> <svg xmlns="http://www.w3.org/2000/svg" width="213" height="213" viewBox="0 0 213 213" fill="none"> <path d="M93.7354 141.016L91.3281 139.225L91.3223 139.233L93.7354 141.016ZM48.1396 140.847L45.7155 142.615L45.7204 142.621L45.7254 142.628L48.1396 140.847ZM48.1396 78.2935L45.7254 76.5126L45.7197 76.5204L48.1396 78.2935ZM93.8477 78.3496L91.4065 80.0933L91.4113 80.1002L91.4163 80.107L93.8477 78.3496ZM63.02 129.224L60.2311 130.329L60.2372 130.344L60.2434 130.36L63.02 129.224ZM78.7988 129.167L76.0186 128.04L76.0142 128.051L76.0099 128.062L78.7988 129.167ZM78.7988 89.917L76.0066 91.014L76.0108 91.0247L76.0151 91.0354L78.7988 89.917ZM63.02 89.8047L65.8019 90.9277L65.8055 90.9189L63.02 89.8047ZM99.0459 110.3C99.0459 122.936 96.3558 132.465 91.3281 139.225L96.1426 142.806C102.196 134.667 105.046 123.719 105.046 110.3H99.0459ZM91.3223 139.233C86.4129 145.879 79.7478 149.19 70.9937 149.19V155.19C81.5559 155.19 90.052 151.051 96.1484 142.798L91.3223 139.233ZM70.9937 149.19C62.2568 149.19 55.5479 145.837 50.5539 139.066L45.7254 142.628C51.887 150.981 60.4141 155.19 70.9937 155.19V149.19ZM50.5638 139.08C45.5239 132.167 42.8291 122.423 42.8291 109.514H36.8291C36.8291 123.184 39.6747 134.329 45.7155 142.615L50.5638 139.08ZM42.8291 109.514C42.8291 96.6441 45.5234 86.9402 50.5596 80.0665L45.7197 76.5204C39.6751 84.7704 36.8291 95.8803 36.8291 109.514H42.8291ZM50.5539 80.0743C55.5479 73.304 62.2568 69.9507 70.9937 69.9507V63.9507C60.4141 63.9507 51.887 68.1593 45.7254 76.5126L50.5539 80.0743ZM70.9937 69.9507C79.8902 69.9507 86.5741 73.328 91.4065 80.0933L96.2889 76.6059C90.2651 68.1726 81.713 63.9507 70.9937 63.9507V69.9507ZM91.4163 80.107C96.3746 86.9672 99.0459 96.9085 99.0459 110.3H105.046C105.046 96.2149 102.252 84.8557 96.2791 76.5923L91.4163 80.107ZM57.5493 109.514C57.5493 118.573 58.3646 125.62 60.2311 130.329L65.8089 128.118C64.3811 124.516 63.5493 118.424 63.5493 109.514H57.5493ZM60.2434 130.36C61.2225 132.753 62.5811 134.788 64.4397 136.228C66.3375 137.698 68.5696 138.4 70.9937 138.4V132.4C69.7865 132.4 68.874 132.073 68.114 131.485C67.3147 130.865 66.5021 129.812 65.7967 128.088L60.2434 130.36ZM70.9937 138.4C73.4024 138.4 75.6142 137.68 77.4842 136.186C79.3097 134.729 80.6352 132.676 81.5877 130.273L76.0099 128.062C75.3154 129.814 74.5163 130.878 73.7402 131.498C73.0085 132.082 72.1412 132.4 70.9937 132.4V138.4ZM81.579 130.295C83.4913 125.578 84.3257 118.54 84.3257 109.514H78.3257C78.3257 118.382 77.4755 124.447 76.0186 128.04L81.579 130.295ZM84.3257 109.514C84.3257 100.556 83.4898 93.5455 81.5825 88.7985L76.0151 91.0354C77.477 94.6739 78.3257 100.728 78.3257 109.514H84.3257ZM81.5911 88.82C80.6408 86.4011 79.3183 84.3337 77.4945 82.8642C75.6246 81.3575 73.4092 80.6279 70.9937 80.6279V86.6279C72.1344 86.6279 72.9981 86.9465 73.7299 87.5362C74.5078 88.163 75.3097 89.2402 76.0066 91.014L81.5911 88.82ZM70.9937 80.6279C68.5586 80.6279 66.3151 81.3259 64.4116 82.8005C62.5461 84.2456 61.1951 86.2894 60.2346 88.6905L65.8055 90.9189C66.4921 89.2022 67.2936 88.1576 68.086 87.5438C68.8404 86.9594 69.7601 86.6279 70.9937 86.6279V80.6279ZM60.2381 88.6817C58.3623 93.3286 57.5493 100.391 57.5493 109.514H63.5493C63.5493 100.519 64.3835 94.4416 65.8019 90.9277L60.2381 88.6817ZM147.361 115.41V118.41H150.361V115.41H147.361ZM147.473 85.9863L144.482 85.762L144.479 85.7973L144.477 85.8327L147.473 85.9863ZM147.922 82.168L150.876 82.6953L145.178 80.9555L147.922 82.168ZM145.508 86.9971L142.888 85.535L142.875 85.5584L142.862 85.5821L145.508 86.9971ZM142.307 92.3877L144.815 94.0334L144.824 94.0205L144.832 94.0076L142.307 92.3877ZM127.202 115.41L124.694 113.764L121.646 118.41H127.202V115.41ZM147.361 150H144.361V153H147.361V150ZM147.361 131.582H150.361V128.582H147.361V131.582ZM109.963 131.582H106.963V134.582H109.963V131.582ZM109.963 115.41L107.447 113.777L106.963 114.522V115.41H109.963ZM140.566 68.2422V65.2422H138.937L138.05 66.6093L140.566 68.2422ZM166.116 68.2422H169.116V65.2422H166.116V68.2422ZM166.116 115.41H163.116V118.41H166.116V115.41ZM175.212 115.41H178.212V112.41H175.212V115.41ZM175.212 131.582V134.582H178.212V131.582H175.212ZM166.116 131.582V128.582H163.116V131.582H166.116ZM166.116 150V153H169.116V150H166.116ZM150.361 115.41V91.4893H144.361V115.41H150.361ZM150.361 91.4893C150.361 89.3089 150.398 87.53 150.469 86.14L144.477 85.8327C144.399 87.3625 144.361 89.2523 144.361 91.4893H150.361ZM150.465 86.2107C150.572 84.7773 150.712 83.6119 150.876 82.6953L144.969 81.6406C144.758 82.8204 144.599 84.2006 144.482 85.762L150.465 86.2107ZM145.178 80.9555C144.506 82.4762 143.743 84.0027 142.888 85.535L148.127 88.4592C149.069 86.7721 149.916 85.0792 150.666 83.3805L145.178 80.9555ZM142.862 85.5821C142.048 87.1053 141.024 88.8324 139.782 90.7678L144.832 94.0076C146.136 91.9749 147.246 90.1082 148.153 88.412L142.862 85.5821ZM139.799 90.742L124.694 113.764L129.71 117.056L144.815 94.0334L139.799 90.742ZM127.202 118.41H147.361V112.41H127.202V118.41ZM150.361 150V131.582H144.361V150H150.361ZM147.361 128.582H109.963V134.582H147.361V128.582ZM112.963 131.582V115.41H106.963V131.582H112.963ZM112.48 117.043L143.083 69.875L138.05 66.6093L107.447 113.777L112.48 117.043ZM140.566 71.2422H166.116V65.2422H140.566V71.2422ZM163.116 68.2422V115.41H169.116V68.2422H163.116ZM166.116 118.41H175.212V112.41H166.116V118.41ZM172.212 115.41V131.582H178.212V115.41H172.212ZM175.212 128.582H166.116V134.582H175.212V128.582ZM163.116 131.582V150H169.116V131.582H163.116ZM166.116 147H147.361V153H166.116V147Z" fill="white"></path> <rect x="1.5" y="1.5" width="210" height="210" stroke="#B61C18" stroke-width="3"></rect> </svg> 